<?xml version="1.0" encoding="UTF-8" standalone="no"?>
<!-- Generator: Adobe Illustrator 19.0.0, SVG Export Plug-In . SVG Version: 6.00 Build 0)  -->

<svg
   version="1.1"
   x="0px"
   y="0px"
   viewBox="812 -473.8 2235.9 1738.8"
   style="enable-background:new 812 -473.8 2235.9 1738.8;"
   xml:space="preserve"
   id="svg210"
   sodipodi:docname="unicorn-logo.svg"
   inkscape:version="1.1 (c68e22c387, 2021-05-23)"
   xmlns:inkscape="http://www.inkscape.org/namespaces/inkscape"
   xmlns:sodipodi="http://sodipodi.sourceforge.net/DTD/sodipodi-0.dtd"
   xmlns:xlink="http://www.w3.org/1999/xlink"
   xmlns="http://www.w3.org/2000/svg"
   xmlns:svg="http://www.w3.org/2000/svg"><defs
   id="defs214"><linearGradient
     id="linearGradient21191"
     inkscape:swatch="solid"><stop
       style="stop-color:#f098b6;stop-opacity:1;"
       offset="0"
       id="stop21189" /></linearGradient><linearGradient
     inkscape:collect="always"
     id="linearGradient6247-3"><stop
       style="stop-color:#000000;stop-opacity:1;"
       offset="0"
       id="stop6243" /><stop
       style="stop-color:#000000;stop-opacity:0;"
       offset="1"
       id="stop6245" /></linearGradient><linearGradient
     id="linearGradient20987"
     inkscape:swatch="solid"><stop
       style="stop-color:#a9a3a3;stop-opacity:1;"
       offset="0"
       id="stop20985" /></linearGradient><rect
     x="1847.2867"
     y="1430.6671"
     width="1840.9467"
     height="304.37431"
     id="rect12539" /><radialGradient
     inkscape:collect="always"
     xlink:href="#linearGradient6247-3"
     id="radialGradient6249"
     cx="2103.4121"
     cy="1440.1562"
     fx="2103.4121"
     fy="1440.1562"
     r="257.67188"
     gradientTransform="matrix(1,0,0,0.08727488,0,1314.4668)"
     gradientUnits="userSpaceOnUse" /><linearGradient
     inkscape:collect="always"
     xlink:href="#linearGradient21191"
     id="linearGradient21193"
     x1="1845.2402"
     y1="1440.1562"
     x2="2361.584"
     y2="1440.1562"
     gradientUnits="userSpaceOnUse" /></defs><sodipodi:namedview
   id="namedview212"
   pagecolor="#ffffff"
   bordercolor="#666666"
   borderopacity="1.0"
   inkscape:pageshadow="2"
   inkscape:pageopacity="0.0"
   inkscape:pagecheckerboard="0"
   showgrid="false"
   inkscape:zoom="0.47318755"
   inkscape:cx="1117.95"
   inkscape:cy="1072.5134"
   inkscape:window-width="2560"
   inkscape:window-height="1027"
   inkscape:window-x="-8"
   inkscape:window-y="-8"
   inkscape:window-maximized="1"
   inkscape:current-layer="svg210" />
<style
   type="text/css"
   id="style2">
	.st0{fill:#7CC1EF;stroke:#7CC1EF;}
	.st1{fill:#AA67BA;stroke:#AA67BA;}
	.st2{fill:#F7BAD9;stroke:#F7BAD9;}
	.st3{fill:#F098B6;stroke:#F098B6;}
	.st4{fill:#F9D5E1;stroke:#F9D5E1;}
	.st5{fill:#694377;stroke:#694377;}
	.st6{fill:#EAA7C1;stroke:#EAA7C1;}
	.st7{fill:#AB89AD;stroke:#AB89AD;}
	.st8{fill:#E96893;stroke:#E96893;}
	.st9{fill:#614E89;stroke:#614E89;}
	.st10{fill:#7D669B;stroke:#7D669B;}
	.st11{fill:#614E89;}
	.st12{fill:#F9D5E1;}
	.st13{fill:none;stroke:#614E89;}
	.st14{display:none;}
	.st15{display:inline;fill:#82CEBB;stroke:#82CEBB;}
	.st16{display:inline;fill:#7DAB9F;stroke:#7DAB9F;}
	.st17{display:inline;fill:#CCD5B5;stroke:#CCD5B5;}
	.st18{display:inline;fill:#BBB78A;stroke:#BBB78A;}
	.st19{display:inline;fill:#E4E3BF;stroke:#E4E3BF;}
	.st20{display:inline;fill:#746F5D;stroke:#746F5D;}
	.st21{display:inline;fill:#CDDEBC;stroke:#CDDEBC;}
	.st22{display:inline;fill:#AAD5B8;stroke:#AAD5B8;}
	.st23{display:inline;fill:#929278;stroke:#929278;}
	.st24{display:inline;fill:#373435;stroke:#373435;}
	.st25{display:inline;fill:#6E736B;stroke:#6E736B;}
	.st26{display:inline;fill:#373435;}
	.st27{display:inline;fill:#E4E3BF;}
	.st28{display:inline;}
	.st29{fill:none;stroke:#373435;}
	.st30{fill:#373435;}
</style>
<g
   id="Layer_1_copy"
   transform="matrix(1,0,0,0.97943747,-2.1133269,-154.38361)">
	<path
   class="st0"
   d="m 1687.8,-297.9 c 41.1,-1.5 82.6,3.3 122.3,14.2 8,2.3 16.1,4.4 23.8,7.9 27.5,12.2 51,32.5 68.4,57.1 18.6,26.4 30,57.5 35.4,89.3 3.4,18.6 4.4,37.6 4.6,56.6 0.4,72.8 0.4,145.7 0.3,218.5 -0.1,20.7 0.4,41.5 2.4,62.2 1.9,19.8 5.1,39.5 11.3,58.3 4.7,14.4 11.1,28.3 20.1,40.4 2.3,3.2 5.1,6.1 7.4,9.3 -29.8,-6.8 -58.7,-19.2 -82.5,-38.7 -21,-17.1 -37.1,-40.2 -45.6,-65.9 -6.1,-18.3 -8.8,-37.7 -8.6,-56.9 0,-67.8 0.1,-135.7 0,-203.6 -0.3,-36.7 -7.3,-73.6 -21.9,-107.3 -11.6,-26.9 -28,-51.7 -47.8,-73.3 -24.7,-27.1 -54.7,-49.4 -87.2,-66.4 -1,-0.7 -1.7,-1.2 -2.4,-1.7 z"
   id="path4" />
	<path
   class="st1"
   d="m 1638.3,-292.9 c 5.7,-0.7 11.4,-2.2 17.2,-2.1 11.9,4.1 23.2,9.8 34.2,15.8 25.9,14.3 49.7,32.2 70.4,53.4 22.3,23 40.6,50 52.7,79.8 13.4,32.5 19.3,67.8 18.8,102.9 0,67.8 -0.1,135.7 0.1,203.5 0.4,21.2 4,42.4 11.6,62.2 3.2,8.9 7.8,17.1 12.1,25.4 -16.1,-3.1 -31.9,-9 -45.6,-18.3 -20.3,-13.4 -35.5,-33.7 -45,-55.9 -7.6,-17.4 -12.5,-35.9 -15.6,-54.6 -3.8,-23.2 -5.2,-46.7 -5.2,-70.3 -0.6,-13.7 -0.6,-27.5 -0.8,-41.2 -0.9,-23.4 -0.8,-46.9 -1.5,-70.3 -1.3,-33 -9.8,-65.8 -25.4,-95 -12.5,-23.7 -29.5,-45 -49,-63.2 -23,-21.5 -49.6,-39.1 -77.8,-53 -3.2,-1.7 -6.7,-2.7 -9.6,-5.1 19,-5.9 38.6,-10.7 58.4,-14 z"
   id="path6" />
	<path
   class="st0"
   d="m 1555.7,-270.3 c 2.1,-1.2 4.3,0.3 6.4,1 29.6,12.3 57.8,28.6 82.6,49 21.3,17.6 40.1,38.7 54,62.7 17.3,29.5 26.8,63.5 27.8,97.6 0.9,41.9 1.7,83.6 2.6,125.5 0.9,28.6 3.9,57.4 11.4,85.1 -26,-5.6 -49,-21.6 -65.7,-42 -20.3,-24.9 -31.9,-55.9 -37.2,-87.2 -1.9,-10.9 -3,-21.9 -3.5,-33 0,-23.4 0.2,-46.8 -2,-70.1 -2.6,-31.2 -9.4,-63 -26.4,-89.6 -16.6,-26.3 -41.8,-45.9 -68.3,-61.6 -9.3,-5.7 -19.2,-10.4 -28.6,-15.6 14.9,-8.5 30.9,-15.3 46.9,-21.8 z"
   id="path8" />
	<path
   class="st1"
   d="m 1899.3,-246.9 c 5.6,2.4 10.6,5.9 15.9,8.9 28.6,17.6 55.1,38.7 78.4,62.9 1.7,1.8 1.5,4.4 2,6.7 7.8,64.2 -3.7,131 -34.1,188.2 -1,2 -2.1,4.1 -3.7,5.7 -0.1,-24.9 -0.1,-49.8 -0.2,-74.7 -0.2,-20.5 0.3,-41 -1.9,-61.4 -3.7,-37.3 -14.3,-74.4 -34,-106.5 -6.5,-10.7 -14.4,-20.3 -22.4,-29.8 z"
   id="path10" />
	<path
   class="st1"
   d="m 1491.6,-239.4 c 27.8,12.9 55.2,27.9 77.9,48.9 17.8,16.4 31.4,37.5 38.2,60.8 -6.7,0 -13.1,-1.8 -19.6,-3.1 -30.7,-7.4 -59.8,-20.8 -85.4,-39.2 -17.3,-12.7 -33.3,-27.8 -44.3,-46.3 10.8,-7.4 21.8,-14.5 33.2,-21.1 z"
   id="path12" />
	<path
   class="st0"
   d="m 1407.4,-178.1 c 12.2,-10.9 25,-21.4 38.3,-30.9 16.5,25.4 39.7,45.7 65.5,61.1 27.7,16.5 58.3,28.4 90.1,33.3 3.4,0.7 7.2,0.2 10.4,1.3 2,6.2 2.5,12.9 3.5,19.2 0.7,5.8 1.5,11.5 1.7,17.4 -37.3,-0.4 -74.5,-8.2 -109,-22.3 -39.9,-16.5 -76.5,-43 -100.5,-79.1 z"
   id="path14" />
	<path
   class="st1"
   d="m 1376.4,-148.5 c 6.2,-6.7 12.7,-13 19.2,-19.2 10.4,14.7 22.4,28.2 36,40.1 -13,0.2 -26.2,-2.1 -38.3,-7 -6.3,-2.7 -12.6,-5.9 -17.7,-10.4 -1.7,-1 -0.1,-2.5 0.8,-3.5 z"
   id="path16" />
	<path
   class="st2"
   d="m 2012.6,-153.8 c 42.4,50.2 71.3,112.1 80.3,177.3 2.5,17.1 3.3,34.5 3.1,51.8 -0.1,176.4 0.1,352.9 -0.1,529.3 -20.5,0.3 -41.1,0 -61.5,0.1 -3.5,0.1 -6.9,-1.1 -10.4,-1.6 v -0.6 c 0.2,-78.4 0,-156.8 0.1,-235.1 -0.3,-11.4 0.6,-22.9 -0.4,-34.3 -0.1,-1.3 -0.2,-2.7 0,-4.1 1.1,-8.5 0.3,-17.1 0.5,-25.6 0,-70.8 0,-141.5 0,-212.4 0.2,-16.1 -1.8,-32.3 -4.6,-48.1 -3.5,-17.4 -8.3,-35 -18.7,-49.7 -2,-3 -4.4,-5.7 -7.3,-7.8 11.7,-33.3 18.4,-68.2 19.5,-103.5 0.4,-11.9 0,-23.9 -0.5,-35.7 z"
   id="path18" />
	<path
   class="st0"
   d="m 1364.4,-134.2 c 20,16.2 46.4,23.1 71.8,21.7 4.3,-0.1 8.5,-1.2 12.8,-1.3 4.3,2.3 8,5.4 12.1,7.9 6.7,4.3 13.7,7.9 20.5,12 -18.3,7.3 -38.3,9.1 -57.8,8.3 -26.2,-1.6 -53,-9.3 -73.2,-27 3.6,-7.8 8.6,-14.8 13.8,-21.6 z"
   id="path20" />
	<path
   class="st3"
   d="m 1344.2,-97.5 c 10.3,7.4 21.3,13.9 33.3,18.2 20,7.3 41.7,10.1 63,9.1 20,-1.1 40,-5.2 58.1,-14 1.2,-0.5 2.5,-1.2 3.7,-0.4 36.5,15.1 76,23.1 115.4,23.4 1.2,14.2 0.7,28.5 0.8,42.6 -73.1,0 -146.1,0.1 -219.2,0 -15,-25.2 -34,-48.5 -58.6,-64.9 1,-4.8 2.1,-9.4 3.5,-14 z"
   id="path22" />
	<path
   class="st4"
   d="m 1217.1,-78 c 26.2,-10 55.6,-13.8 83,-6.2 25.4,6.8 47.3,23 64.1,42.8 6.1,7.2 11.8,14.7 16.8,22.8 -14.1,0.1 -28.2,0 -42.3,0.1 -2.5,0 -5,0.1 -7.4,-0.4 -40.6,-10 -81.2,-20 -121.7,-29.9 -10.9,-2.7 -21.9,-5.1 -32.6,-8.2 12.2,-8.8 26,-15.5 40.1,-21 z"
   id="path24" />
	<path
   class="st5"
   d="m 1240,-11.3 c 4.9,-3.7 9.9,-7.5 15.6,-10.1 3.8,-0.4 7.4,1.3 11,2 19.3,4.7 38.6,9.6 58,14.1 0.4,6.8 0.3,13.7 0.1,20.5 -11.3,4.7 -22.3,10.1 -33.6,14.5 -3.9,-4.5 -8.4,-8.6 -13.7,-11.6 -7.8,-4.9 -17,-6.7 -25.7,-9.4 -8.2,-2.6 -16.5,-4.7 -24.5,-7.5 3.2,-5 8.2,-8.6 12.8,-12.5 z"
   id="path26" />
	<path
   class="st4"
   d="m 1993.5,-14.6 c 2.8,2.1 5.3,4.8 7.3,7.8 10.4,14.7 15.3,32.4 18.7,49.7 2.9,15.9 4.9,32 4.6,48.1 0,70.8 0,141.5 0,212.4 -0.2,8.5 0.5,17.1 -0.5,25.6 -5.2,-6.9 -13.3,-10.6 -19.9,-16 -11,-8.9 -19.4,-20.5 -25.6,-33.2 -7.5,-15.4 -11.9,-32.2 -14.9,-49 -6.7,-38.4 -5.2,-77.4 -5.4,-116.2 0,-19.1 0,-38 0,-57.1 -0.2,-1.8 0.6,-3.4 1.6,-4.8 14.2,-20.8 25.4,-43.7 34.1,-67.3 z"
   id="path28" />
	<path
   class="st4"
   d="m 1339.9,-2.9 c 21.8,-0.5 43.6,-0.1 65.5,-0.2 19.6,0 39.2,0 58.8,0 -0.4,17.5 2,34.8 6.5,51.7 4.1,14.5 9.4,28.6 17.4,41.5 12.1,20.3 29.4,37.3 49.7,49.4 5.3,3.3 11.5,5.1 16.4,9.1 -14.1,24.1 -33.3,45.2 -55.8,61.6 -13.7,10.2 -28.8,18.4 -44,26.2 -3.1,1.3 -5.3,4.5 -5.1,8.1 0,24.9 0,49.8 0,74.7 0.1,12.5 6,24.6 15.7,32.5 2.7,2.2 5.6,4.1 8.5,5.9 -7.3,13.8 -18.1,25.8 -31.3,34.3 -19.4,12.4 -42.9,17.6 -65.8,16.4 -1.6,0.1 -2.7,-1.2 -3.7,-2.1 -11.3,-11.3 -18.6,-26.2 -23.6,-41.2 -7.2,-22.7 -9.8,-46.6 -9.1,-70.4 -0.1,-99.2 0.1,-198.3 -0.1,-297.5 m 84.3,101.4 c -2.8,1.3 -4.5,4.3 -4.4,7.4 0,12.3 0,24.6 0,36.9 0.4,7.4 -4.3,16 -12.1,17.3 -5,1.2 -6.9,7.7 -4,11.7 2.3,3.5 6.9,3.9 10.6,2.7 12.9,-4 21.1,-17.6 21.1,-30.7 -0.1,-12.9 0.1,-25.8 -0.1,-38.7 0,-5.4 -6.5,-9.1 -11.1,-6.6 z"
   id="path30" />
	<path
   class="st6"
   d="m 1464.1,-3.1 c 19.6,-0.1 39.1,-0.1 58.7,0 0.7,16.1 5.2,32.1 12.7,46.5 6.8,13.5 17.2,24.9 28.9,34.3 4.5,3.8 10.1,6.2 14.3,10.5 -5.7,21 -13.6,41.6 -24.6,60.5 -4.9,-4 -11.1,-5.9 -16.4,-9.1 -20.3,-12.1 -37.7,-29 -49.7,-49.4 -8,-12.8 -13.3,-27 -17.4,-41.5 -4.5,-16.9 -6.7,-34.3 -6.5,-51.8 z"
   id="path32" />
	<path
   class="st7"
   d="m 1522.8,-3.1 c 22,-0.1 44.1,-0.2 66.1,0 0.4,30.7 -2.7,61.4 -10.3,91.2 -4.2,-4.3 -9.8,-6.7 -14.3,-10.5 -11.7,-9.4 -22.1,-20.8 -28.9,-34.3 -7.3,-14.3 -11.9,-30.2 -12.6,-46.4 z"
   id="path34" />
	<path
   class="st8"
   d="m 1199.3,48.1 c 6.5,-17 15.3,-33.4 27.8,-46.8 8.1,2.9 16.3,5.1 24.5,7.5 8.7,2.7 17.9,4.4 25.7,9.4 5.2,3 9.8,7 13.7,11.6 -26.2,11.8 -52.6,23.1 -78.8,34.7 -6.7,2.7 -13.2,6.1 -20,8.4 1.2,-8.5 4.2,-16.7 7.1,-24.8 z"
   id="path36" />
	<path
   class="st4"
   d="m 2453.9,36.7 c 17.6,-5.1 36,-7.6 54.4,-8.1 14.4,-0.4 28.7,0.7 43.1,1.7 61.8,5.1 123.5,18.4 179.7,45 37.7,17.6 72.4,41.7 101.7,71.1 21.5,21.5 40.2,46 52.6,73.9 15.2,33.7 22.1,70.7 23.9,107.5 -46.8,-0.1 -93.5,0 -140.4,0 -25.4,-0.1 -50.6,2.8 -75.5,7.2 -47.2,8.4 -93.2,23.2 -136.1,44.7 -41.1,20.5 -79.1,47.2 -111.7,79.4 -8.4,8.2 -16.3,16.8 -24,25.6 -7,-8 -12.5,-17.2 -18.3,-26.1 -33.1,-51.5 -58.3,-107.8 -77,-166 -21.9,-69.2 -35.2,-141.2 -39,-213.7 -0.1,-2.8 -0.1,-5.7 0,-8.5 2.7,-0.3 5.4,-0.6 8.1,-0.9 45,-1.5 90.2,-8.2 132.8,-23.3 8.6,-3.1 16.9,-7 25.7,-9.5 z"
   id="path38" />
	<path
   class="st3"
   d="m 2111,46.4 c 34.3,9.4 69.4,15.9 104.9,19.6 2.8,44.6 7.3,89.1 15.1,133.1 11.5,66.2 29.8,131.6 56.8,193.2 19.5,44.4 43.5,86.9 72.4,125.9 1.7,2.3 3.5,4.6 5.1,7 -41.9,0.2 -83.6,0 -125.5,0.1 -25.6,0.5 -50.4,9.7 -72.3,22.6 -20.6,12 -39,27.5 -55.9,44.2 -0.4,-36 -0.1,-72 -0.2,-108 0,-138.6 0,-277.3 0,-415.9 0.2,-7.3 -0.4,-14.6 -0.4,-21.8 z"
   id="path40" />
	<path
   class="st2"
   d="m 2231.5,67.6 c 21.2,1.6 42.5,2.1 63.7,1.8 -2.7,0.3 -5.4,0.6 -8.1,0.9 -0.1,2.8 -0.2,5.7 0,8.5 3.8,72.5 17,144.5 39,213.7 18.7,58.2 43.8,114.6 77,166 5.8,8.9 11.3,18.1 18.3,26.1 -10.9,13 -21.5,26.5 -30.9,40.6 -1.9,0 -3.8,0 -5.7,-0.1 -29.9,-37.8 -55.2,-79.1 -75.6,-122.6 -27.1,-57.5 -45.9,-118.8 -58.5,-181.1 -10.1,-50.7 -16.5,-102.1 -19.2,-153.8 z"
   id="path42" />
	<path
   class="st4"
   d="m 1635.3,71.6 c 10.6,25.6 26.2,49.7 47.7,67.4 17.8,14.9 39.6,25.1 62.6,28.7 9.4,25.4 23.9,49.7 45,67.1 20.1,16.8 45.4,26.5 71.3,29.8 2.7,0.4 5.9,0.3 7.5,2.8 18.2,21.8 42.1,38.3 68.1,49.5 18.4,8 37.9,13.5 57.5,17.1 7.2,1.3 14.5,2.6 21.8,1.7 2.4,-0.2 4.6,-1.4 6.7,-2.6 1.1,11.4 0.2,22.9 0.4,34.3 0,78.4 0.1,156.8 -0.1,235.1 -5.1,-0.9 -9.6,-3.2 -14.3,-5.1 -28.1,-12.3 -54,-29.3 -77.5,-48.9 -43.3,-36.4 -77.7,-83.3 -99.7,-135.4 -17.6,-41.1 -27.5,-85.4 -31.4,-129.9 0.1,-4.6 -4.3,-8.7 -8.9,-7.9 -4.1,0.4 -7.3,4.6 -6.7,8.7 5.6,67.1 25.4,133.6 61.7,190.6 13,20.7 28.4,39.9 45.1,57.7 -41.3,0.1 -82.7,-3.6 -123.2,-12.1 -33.2,-7.3 -66.2,-17.2 -95.9,-34 0.1,-8.8 0.4,-18 -3.8,-25.9 -6.9,-14.3 -22.5,-21.6 -37.4,-24.2 -4.7,-0.7 -10.8,-2.8 -14.4,1.5 -3.9,4.2 -1.2,11.9 4.4,12.6 8.1,1.1 16.2,2.7 23.3,6.8 6.6,3.7 12,10.4 12.3,18.2 0,27 0,53.8 0,80.8 -0.4,5.1 4.3,8 7.4,11.2 22.4,21.1 50.1,36.3 79.5,45.1 19.4,5.9 39.5,9.1 59.9,10.5 2.4,0.2 5.1,-0.2 6.8,-2 3.2,-3.3 5.6,-7.3 8.8,-10.5 3.5,19.3 8.7,38.8 19.2,55.7 -14.5,5.5 -29.9,8 -45.2,9.2 -35.7,2.6 -71.7,-4 -105,-17 -25.9,-10 -50.7,-23.3 -72.5,-40.6 -22.3,-17.6 -41.2,-39.3 -55.5,-63.8 -14.5,-24.6 -24.4,-51.8 -30.9,-79.5 -8,-34.1 -11.2,-69.3 -11.6,-104.4 65.4,0 130.9,-0.1 196.4,0 10.9,12.8 23.1,24.6 36.5,34.7 3.5,2.4 6.7,5.1 10.5,7.1 5,2.3 11.2,-2.1 10.6,-7.5 0,-3.9 -3.5,-6.2 -6.4,-8.1 -24.2,-16.7 -44.1,-39.1 -59.9,-63.8 -17.3,-26.7 -30.1,-56.1 -40,-86.3 -14.9,-45.5 -23.4,-92.7 -28.3,-140.3 -0.8,-11.2 -2.2,-22.6 -2.4,-34.1 z"
   id="path44" />
	<path
   class="st9"
   d="m 1424.2,98.5 c 4.7,-2.5 11.1,1.2 11.1,6.6 0.2,12.9 0,25.8 0.1,38.7 0.1,13.1 -8.2,26.8 -21.1,30.7 -3.6,1.2 -8.3,0.8 -10.6,-2.7 -2.9,-4 -1,-10.6 4,-11.7 7.9,-1.3 12.5,-9.8 12.1,-17.3 0,-12.3 0,-24.6 0,-36.9 -0.1,-3 1.6,-6.1 4.4,-7.4 z"
   id="path46" />
	<path
   class="st0"
   d="m 2871.4,166.5 c 15.9,6.1 31,14 45.2,23.3 9.6,6.4 19,13.2 27.1,21.4 -15.3,0.2 -30.4,0.2 -45.7,-0.1 -6.6,-14.2 -14.6,-27.7 -23.9,-40.3 -1,-1.4 -1.9,-2.9 -2.7,-4.3 z"
   id="path48" />
	<path
   class="st1"
   d="m 2904.9,226.8 c 17.3,-0.4 34.5,0 51.8,-0.1 1.5,-0.2 2.9,0.4 3.8,1.8 6.8,8.3 12.9,17.2 18.3,26.6 2.5,4.8 5.4,9.4 7,14.6 -22.8,0 -45.5,0 -68.3,0 -3.2,-14.6 -7.5,-28.9 -12.6,-42.9 z"
   id="path50" />
	<path
   class="st0"
   d="m 2920.4,285.1 c 23.9,0.1 47.9,-0.1 71.8,0.1 3.2,9.2 5.9,18.5 7.9,28 0.6,2 -1.1,3.7 -2.2,5.1 -5.9,6.6 -15.1,9.3 -23.8,9.3 -16.4,0 -32.8,0 -49.1,0 -0.9,-8.4 -1.2,-16.8 -2.3,-25.2 -0.7,-5.7 -1.8,-11.5 -2.3,-17.3 z"
   id="path52" />
	<path
   class="st1"
   d="m 2988.9,341 c 5.3,-1.4 10.1,-4.2 14.8,-6.9 2.4,17.7 3,35.6 2.7,53.6 -0.1,2.4 0.2,5.1 -1.3,7.3 -8.1,13 -21.1,22 -34.8,28.5 -20.2,9.3 -42.5,14.3 -64.6,14.8 -49.7,-0.8 -99.4,-0.6 -149.1,-0.4 -49.4,0.1 -98.9,0.4 -148.3,0.4 -11.1,0 -22.3,-0.1 -33.3,0.1 -29.6,0.7 -59.1,5.7 -87.2,14.8 -7.1,2.1 -13.8,5.1 -20.8,7.4 6.6,-6.7 13.9,-12.6 21.2,-18.4 37.4,-30 80,-53.3 124.9,-69.7 46.3,-16.8 95.1,-27 144.4,-29.1 68.2,-0.2 136.3,0 204.5,-0.1 8.9,-0.3 18.2,0.6 26.9,-2.3 z"
   id="path54" />
	<path
   class="st0"
   d="m 2962.9,443 c 14.9,-5.1 28.9,-12.9 41.1,-23 -3.2,28.6 -10.1,56.7 -19.8,83.7 -3.6,11.9 -13,21 -23.1,27.8 -14.2,9.3 -30.7,14.5 -47.1,18.4 -42.9,9.8 -87.2,9.1 -131.1,9.8 -70.8,0.7 -141.5,1.5 -212.4,1.9 -20.4,-0.2 -40.9,1.9 -60.7,6.6 -46.8,10.8 -89.8,35.6 -124.8,68.3 -16.8,15.5 -31.7,32.8 -45.2,51.3 -2,2.7 -3.8,5.6 -6.1,8.1 5.1,-21.9 12.1,-43.4 19.9,-64.6 17.1,-45.1 40.5,-88 70.8,-125.6 3,-3.6 5.8,-7.8 9.9,-10.3 20.7,-13.8 43.8,-23.7 67.7,-30.5 26.8,-7.7 54.7,-11.3 82.6,-11.2 95.7,-0.1 191.3,-0.7 286.9,-0.4 12,0 23.9,0.4 35.9,0.4 18.9,-0.7 37.7,-4.4 55.5,-10.7 z"
   id="path56" />
	<path
   class="st1"
   d="m 2947.2,555.5 c 6.3,-2.3 12.1,-5.7 18.1,-8.4 -6.6,13.8 -14.5,27 -22.7,39.7 -10.2,15.6 -21.3,30.6 -33.3,44.8 -9.4,10 -20.9,17.7 -33.1,23.9 -31.6,16 -66.9,22.7 -102.1,24.9 -25.2,0.8 -50.4,0.3 -75.5,0.4 -22.5,0.1 -45,-0.2 -67.6,0.1 -40.6,0.6 -81.1,8.2 -119.3,22.5 -57.3,21.4 -108.5,57.2 -151,100.8 -11.7,12.1 -22.8,24.6 -33.2,37.9 -5.2,6.3 -9.7,13.3 -15,19.6 -0.2,-21.5 1.6,-43 3.5,-64.5 1.8,-17.8 4.1,-35.6 7.1,-53.3 0.6,-3.7 2.9,-6.8 4.7,-10.1 22.7,-39.1 51.4,-75.3 87.2,-103.1 40.3,-31.7 90.5,-51.8 142,-53.6 41.2,-0.3 82.5,-0.9 123.7,-1 48.2,-0.9 96.6,-0.7 144.8,-1.7 21.4,-0.6 42.7,-1.7 63.8,-4.7 20,-2.6 39.5,-6.8 57.9,-14.2 z"
   id="path58" />
	<path
   class="st10"
   d="m 1839,586.1 c 18.9,6.5 37.6,13.7 56.4,20.4 4.6,1.9 9.6,3 13.9,5.5 -8.3,14.5 -20.1,26.7 -33.7,36.4 -6.8,4.7 -14,9.2 -21.7,12.2 -12.7,-19 -17.4,-41.9 -20.3,-64.1 -0.9,-4.5 3.3,-7.2 5.4,-10.4 z"
   id="path60" />
	<path
   class="st3"
   d="m 2032.7,620.1 c 21,-0.1 42.1,0 63.1,0 2.7,0 5.6,-0.3 8.2,0.6 23.8,9 43.9,25.9 59.5,45.8 8,10.1 15,21.1 20.9,32.5 2,3.9 4.2,7.8 5.5,12 -21.5,9.8 -40.2,25.6 -54.2,44.6 -16,21.5 -26.8,46.4 -34.2,72 -10.9,38.3 -15,78.2 -14.5,117.9 -13.1,4.3 -25.2,11.4 -35.3,20.9 -14.3,-15.9 -31.4,-29.5 -51.1,-38.1 -2.4,-1 -4.8,-2 -7.1,-3.1 8.8,-6.8 18.9,-11.7 28,-18 9.4,-6.7 13.4,-18.4 15.5,-29.3 3.1,-15.6 3,-31.6 3,-47.4 -0.1,-29.5 -3.2,-59 -5.1,-88.4 -2.2,-35.1 -3.5,-70.4 -2.9,-105.6 0.2,-5.3 0.3,-10.9 0.7,-16.4 z"
   id="path62" />
	<path
   class="st0"
   d="m 2800.1,693.4 c 21.6,-2.7 43,-7.9 63.5,-15.3 -9.6,9.2 -20.1,17.4 -30.6,25.4 -27.6,20.8 -57.3,38.8 -88.3,53.9 -47.3,22.8 -98.2,39.4 -150.8,42.8 -12.4,0.8 -24.9,0.3 -37.3,0.4 -56.6,-0.1 -113.1,0.2 -169.6,-0.1 9.8,-10.1 21,-18.9 32.1,-27.7 24.7,-19.1 51.7,-35.3 80.2,-47.8 32.5,-14.4 67.4,-23.5 102.8,-27.1 20.7,-2.3 41.6,-1.8 62.4,-1.8 26.9,0 53.8,0 80.7,0 18.3,0.3 36.6,-0.2 54.9,-2.7 z"
   id="path64" />
	<path
   class="st4"
   d="m 2835,721.3 c 8,-5.8 15.6,-12 23.4,-18 5.6,22.3 8.8,45 11.6,67.7 -17.7,4.1 -35.6,8.7 -52.1,16.5 -12.8,5.9 -24.8,14.1 -33.7,25.1 -8.5,10.4 -14,22.9 -17.7,35.7 -4.6,16 -6.9,32.5 -9,49 -3,25.3 -5.5,50.6 -8.4,76 -27.8,11 -53.9,28.4 -71.3,53.1 -2.4,2.9 -3.9,6.6 -6.4,9.4 -4.5,-3.9 -8.3,-8.6 -12.9,-12.5 -14.6,-13.2 -31.2,-24.4 -49.6,-31.7 4,-5 9.1,-9 13.7,-13.3 7.7,-6.9 15.7,-13.5 23.1,-20.7 4.6,-4.6 9.2,-9.5 11.6,-15.6 1.7,-4.2 1.2,-8.8 1.2,-13.1 0,-41.1 0,-82.3 0,-123.4 32.9,-8.3 64.8,-20.5 95.2,-35.4 28.6,-13.9 55.8,-30.2 81.3,-48.8 z"
   id="path66" />
	<path
   class="st5"
   d="m 2564.4,815.8 c 12.1,-0.2 24.1,0.5 36.2,-0.9 -2.4,5.9 -5.9,11.4 -8.1,17.6 -3.4,8.3 -5.4,17.2 -7.4,25.9 -5.8,-0.6 -11.4,0.8 -17.1,1.2 -10.8,1 -21.6,2 -32.5,1.8 -15.5,0 -30.9,0 -46.5,0 -0.2,-15.2 -0.1,-30.3 0,-45.5 25.1,-0.1 50.2,-0.1 75.4,-0.1 z"
   id="path68" />
	<path
   class="st6"
   d="m 2567.9,859.6 c 5.7,-0.4 11.3,-1.9 17.1,-1.2 -4.2,19.7 -5.5,39.8 -7.9,59.7 -3.7,3.4 -8.5,5.3 -12.5,8.4 -26.2,17.6 -49.6,40.3 -65.6,67.7 -3.9,6.4 -7,13.3 -10.2,20 -4,-4.2 -7.4,-9 -11.6,-13 -14.3,-14.5 -31.9,-25.6 -51.3,-32.2 10.7,-13 23.2,-24.5 35.8,-35.6 6,-5.4 12.2,-10.6 17.7,-16.6 4.9,-5.3 9.6,-11.8 9.5,-19.4 0,-12.1 -0.1,-24 0,-36.1 15.5,0 30.9,0 46.5,0 10.9,0.2 21.7,-0.8 32.5,-1.7 z"
   id="path70" />
	<path
   class="st10"
   d="m 1973.5,940 c 1.9,-1.4 3.7,-3.9 6.3,-2.9 24.5,6.3 45.4,22.2 61.8,41 -3.5,5.1 -6.8,10.4 -9.9,15.8 -32.5,0 -65,0.2 -97.4,-0.1 6.8,-21.6 22.5,-39.2 39.2,-53.8 z"
   id="path72" />
	<path
   class="st10"
   d="m 2414.7,983.7 c 1,-2 3.5,-1.1 5.2,-0.7 23.7,7.3 44.2,23.2 58.5,43.2 1.4,2 3.2,3.9 4.1,6.4 -1.4,6.6 -3.1,13 -3.8,19.7 -29.3,0.5 -58.7,0.1 -88,0.2 1.2,-24.7 10.6,-48.4 24,-68.8 z"
   id="path74" />
	<path
   class="st10"
   d="m 2596.9,1003.7 c 14.1,4.3 27,11.9 38.7,20.7 10.5,7.9 20,16.8 28.6,26.8 -2.7,7.4 -5.4,14.8 -6.8,22.5 -1.2,5.2 -1.6,10.6 -2.5,15.8 -31.9,0.2 -63.9,0.1 -95.9,0 2.3,-31.9 17,-62 37.9,-85.8 z"
   id="path76" />
	<path
   class="st11"
   d="m 3021.3,357.7 c -1.8,-35.6 -9.2,-71.5 -25.5,-103.3 -13.3,-26.2 -32.6,-49.1 -55.9,-67 -24.8,-19.3 -53.6,-33.1 -83.3,-43 -2.7,-1 -5.9,-1.3 -7.7,-3.7 C 2817.4,107.8 2779.7,81 2738.6,61.6 2682,34.8 2620,20.9 2557.8,15.3 c -13,-1.1 -26.1,-2 -39.1,-2.3 -21.9,-0.3 -43.9,2.1 -65.1,7.7 -12.4,3 -23.9,8.5 -35.9,12.4 -41.1,13.7 -84.6,20 -127.9,20.7 -42.1,0.8 -84.2,-3.3 -125.6,-11.1 -18.4,-3.6 -36.9,-7.5 -54.9,-13.2 -6.2,-55.7 -26.5,-109.5 -57.2,-156.3 -35.5,-54.2 -84.3,-99.3 -140.5,-131.4 -60.1,-34.4 -128.9,-53.9 -198.3,-55.4 -42.5,-1 -85,4.7 -125.9,16.4 -37.9,10.9 -74.2,27 -108.3,47.3 -35.8,21.2 -68.9,46.9 -99,75.6 -14.7,14.1 -28.7,29.2 -39.3,46.7 -6.7,11.1 -11.4,23.3 -14.5,35.9 -7,-3.2 -14.1,-6.2 -21.5,-8.2 -21.7,-6.1 -45,-5.9 -66.9,-0.9 -24.6,5.5 -48,16.3 -69.2,30 -5.4,3.6 -10.8,7.3 -15.8,11.4 -3.3,2.7 -3.5,8.1 -0.6,11.1 2,2.3 5.3,2.6 8.2,3.4 24.6,6 49.2,12.1 73.9,18.1 -0.8,1.1 -1.9,2 -2.9,2.8 -6.7,5.1 -12.9,11.2 -18.4,17.6 -4.3,5.1 -8.2,10.4 -11.7,16 L 837,40.7 1175.1,77.1 c -0.7,3.2 -1.3,6.4 -1.4,9.7 0.1,5.1 6.1,8.9 10.8,6.6 9.4,-4.1 18.7,-8.1 28,-12.2 l 111.6,12 c 0,63.1 0,126.2 0,189.3 0.1,12.8 -0.4,25.7 0.8,38.5 2,22.7 6.6,45.4 16,66.1 5.9,12.9 14.2,25.1 25.1,34.5 2.7,2.5 6.7,2.2 10.2,2.5 23.4,0.8 47.3,-3.8 67.8,-15.1 21.2,-11.4 37.9,-30.6 47.2,-52.7 1.5,-3.7 -0.8,-8.4 -4.6,-9.7 -6.2,-2.2 -12.1,-5.9 -16.1,-11.1 -4,-5.1 -5.9,-11.6 -5.9,-18.1 0,-21.6 0.1,-43.3 0,-64.9 0.2,-1.3 -0.3,-2.9 0.5,-4.1 3.3,-2 6.9,-3.6 10.3,-5.6 23.6,-12.7 45.8,-28.5 64,-48.2 21.5,-23 37.4,-50.8 47.6,-80.5 13,-37.6 17.5,-77.6 17.4,-117.1 4.4,-0.1 9,-0.1 13.5,0 -0.7,34.1 0.5,68.4 3.7,102.4 3.6,39 9.8,77.8 19.4,115.7 9,35.4 21.3,70.2 38.5,102.6 6.7,12.8 14.5,24.8 22.6,36.7 -63.8,0.3 -127.8,0 -191.6,0.1 -3.5,-0.1 -6.8,2.6 -7.5,6 -0.4,2.8 -0.1,5.8 -0.1,8.6 0.7,52.3 6.9,105.3 25.5,154.4 10.9,27.9 26.3,54.2 46.2,76.6 18.3,20.7 40.2,38 64.1,51.7 25.3,14.4 52.4,25.5 80.6,32.5 33.4,8 68.6,9.7 102.3,2.7 25.4,-5.3 50.1,-15.9 70.3,-32.5 14.6,-11.9 26.7,-27 34.8,-44 2,-4.1 -0.5,-9.1 -4.7,-10.5 -27.7,-10.1 -55.3,-20 -83,-30.1 -3.2,-1.3 -7.1,-0.4 -9.2,2.4 -9.2,11.6 -18.5,23.1 -27.8,34.8 -40.3,-2.7 -80.8,-14.8 -113.1,-39.5 -5.5,-4.4 -11.3,-8.8 -16,-14.2 -0.2,-16.4 -0.1,-32.8 0,-49.2 29.1,14.5 60.5,24.3 92.2,31.1 45.8,9.8 92.9,13.4 139.7,12.7 1.2,0.1 2.7,-0.3 3.8,0.8 31.6,28.6 67.9,52.6 107.9,67.7 -2.1,52.7 0.5,105.3 4.6,157.8 2.1,28.6 4.2,57.5 2.1,86.2 -1.1,9.9 -2,20.3 -6.9,29.2 -2.9,5.3 -8.7,7.8 -13.7,10.9 -23.1,13.7 -45.3,29.9 -62.5,50.7 -11.6,14.1 -20.7,30.6 -24.1,48.7 -1.2,4.8 3.1,9.8 8,9.4 37.2,0 74.4,0 111.5,0 3.4,0.2 6.6,-2 7.7,-5.1 9.2,-21.7 28.6,-39.1 51.7,-44.9 3.7,-0.6 7.4,-3.6 7.3,-7.6 -1.2,-38 2,-76.3 11.5,-113.1 7.2,-27 17.9,-53.5 35,-75.6 13.7,-18 32.1,-32.5 53.3,-40.7 4.2,-1.3 6.5,-6.4 4.7,-10.5 -4.2,-11 -9.6,-21.5 -15.6,-31.7 -17.8,-29.8 -42.8,-56.5 -74.8,-71 11.8,-13 24.9,-24.9 39,-35.4 21.4,-15.8 45.8,-28.6 72.4,-32.3 9,-1.2 18.2,-0.8 27.2,-0.9 40.1,0 80.2,0 120.2,0 1.3,-0.2 2.4,0.7 3.5,1.3 -0.6,1.1 -1.2,2.2 -1.8,3.3 -34,56.7 -55.5,120.2 -67.5,185.1 -9.2,50.1 -13.2,101 -13.2,151.9 0.2,3.5 -0.8,7.4 1,10.6 2.5,4.7 9.9,5.1 12.9,0.7 16.8,-28 37.3,-53.7 59.9,-77.3 34.3,-0.1 68.5,-0.1 102.9,0 0.1,26.8 0,53.6 0.1,80.2 0.4,4.3 -3,7.4 -5.7,10.4 -10.4,10.5 -21.9,19.6 -32.5,29.8 -12.6,11.9 -24.3,24.6 -33.8,39.1 -16.7,24.7 -26.2,54.2 -26.8,84 -0.3,4.3 3.7,8.1 8,7.8 34.2,0 68.5,0 102.8,0 3.6,0.3 7.3,-2.5 7.8,-6.1 1.2,-25.4 11.5,-49.8 26,-70.6 17.6,-25.3 41.9,-45.2 68.4,-60.6 2.5,-1.3 4.3,-3.8 4.4,-6.7 2.9,-24.6 4.2,-49.7 10.8,-73.7 3.5,-12.9 8.9,-25.6 17.8,-35.7 1.2,-1.7 3.3,-1.6 5.1,-2 5.8,-0.9 11.5,-2 17.3,-3.2 0,41.8 0,83.4 0,125.2 0.3,4.2 -3.1,7.1 -5.6,9.9 -9.7,9.7 -20.4,18.2 -30.4,27.5 -12.2,11.3 -23.8,23.3 -33.4,36.8 -18.8,25.7 -29.8,57.1 -30.3,89 -0.1,4.2 3.9,7.7 8,7.5 36.9,0 73.7,0 110.6,0 4.3,0.4 8.3,-3.3 8.2,-7.6 -0.2,-22.1 7.5,-43.8 20.2,-61.7 16.3,-23.1 41,-39 67.1,-48.7 2.8,-0.9 5.7,-3 6.1,-6.2 4.8,-34.7 6.9,-69.6 12.7,-104.1 3.1,-16.8 7.4,-34 17.3,-48.4 8,-11.6 19.6,-20.4 32.3,-26.5 15.8,-7.6 32.8,-12.1 49.9,-15.8 3.3,-0.7 7.2,-1 9.2,-4.1 2,-2.5 1.4,-5.7 1.1,-8.5 -3.5,-27.3 -7.3,-54.7 -14.4,-81.3 15.9,-14.2 31,-29.2 45,-45.2 41.2,-47.2 73.1,-102.9 90.4,-163.2 12.1,-40.8 17,-83.4 14.8,-125.8 z M 3000,313.3 c 0.6,2 -1.1,3.7 -2.2,5.1 -5.9,6.6 -15.1,9.3 -23.8,9.3 -16.3,0 -32.7,0.1 -49.1,0 -0.8,-8.4 -1.2,-16.8 -2.3,-25.2 -0.6,-5.9 -1.8,-11.6 -2.2,-17.5 23.9,0.1 47.9,-0.1 71.7,0.2 3.2,9.2 5.9,18.6 7.9,28.1 z m -39.6,-84.7 c 6.9,8.3 13,17.2 18.3,26.6 2.5,4.8 5.4,9.4 7,14.6 -22.8,0 -45.5,-0.1 -68.3,0 -3.1,-14.6 -7.4,-29 -12.5,-43 17.2,-0.4 34.5,0 51.7,0 1.5,-0.1 2.9,0.5 3.8,1.8 z m -43.8,-38.8 c 9.6,6.4 19,13.2 27.1,21.4 -15.3,0.2 -30.5,0.2 -45.7,-0.1 -6.6,-14.2 -14.6,-27.7 -23.9,-40.3 -1.1,-1.3 -2,-2.7 -2.8,-4.3 15.9,6.1 31,14 45.3,23.3 z M 1915.2,-238 c 28.6,17.6 55.1,38.7 78.4,62.9 1.7,1.8 1.5,4.3 2,6.7 7.8,64.3 -3.8,131 -34.1,188.2 -1.1,2 -2.1,4.1 -3.7,5.7 -0.1,-24.9 -0.1,-49.8 -0.2,-74.7 -0.1,-20.5 0.4,-41 -1.9,-61.4 -3.7,-37.3 -14.2,-74.5 -34,-106.5 -6.5,-10.6 -14.3,-20.3 -22.3,-29.8 5.5,2.4 10.5,5.8 15.8,8.9 z M 1810,-283.9 c 8.1,2.3 16.1,4.4 23.8,7.9 27.5,12.2 51.1,32.6 68.4,57.1 18.6,26.4 30,57.5 35.4,89.3 3.4,18.7 4.5,37.7 4.6,56.6 0.4,72.8 0.4,145.7 0.3,218.5 -0.1,20.7 0.4,41.6 2.4,62.2 1.9,19.8 5.1,39.5 11.3,58.3 4.6,14.4 11.1,28.3 20.1,40.4 2.3,3.3 5.1,6.1 7.4,9.3 -29.8,-6.8 -58.7,-19.2 -82.5,-38.7 -21,-17.1 -37.1,-40.2 -45.6,-65.9 -6.2,-18.3 -8.8,-37.7 -8.6,-56.9 0,-67.9 0.1,-135.8 0,-203.6 -0.3,-36.7 -7.2,-73.5 -21.9,-107.3 -11.7,-27 -28,-51.7 -47.8,-73.3 -24.7,-27.1 -54.7,-49.4 -87.2,-66.4 -0.8,-0.4 -1.6,-1.1 -2.3,-1.6 41.2,-1.4 82.6,3.3 122.2,14.1 z m -171.7,-9 c 5.7,-0.7 11.3,-2.2 17.3,-2.1 11.9,4.1 23.1,9.8 34.2,15.8 25.9,14.3 49.8,32.2 70.4,53.4 22.3,23.1 40.6,50.1 52.7,79.8 13.4,32.5 19.2,67.8 18.8,102.9 0.1,67.8 -0.1,135.7 0.1,203.5 0.4,21.2 4,42.5 11.6,62.2 3.2,8.9 7.7,17.1 12.1,25.4 -16.1,-3.2 -31.9,-9 -45.6,-18.3 -20.4,-13.4 -35.5,-33.7 -45,-55.9 -7.7,-17.4 -12.5,-35.9 -15.6,-54.6 -3.8,-23.2 -5.2,-46.8 -5.2,-70.3 -0.6,-13.7 -0.6,-27.5 -0.8,-41.2 -0.9,-23.4 -0.7,-46.9 -1.5,-70.3 -1.3,-33.1 -9.8,-65.8 -25.4,-95 -12.5,-23.7 -29.5,-45 -49,-63.2 -23,-21.5 -49.6,-39.1 -77.8,-53 -3.2,-1.7 -6.8,-2.7 -9.6,-5.1 19,-6 38.5,-10.7 58.3,-14 z m -146.7,53.5 c 27.8,12.9 55.2,27.9 77.9,48.8 17.9,16.3 31.4,37.5 38.2,60.8 -6.7,0 -13.1,-1.8 -19.6,-3.1 -30.7,-7.3 -59.8,-20.8 -85.4,-39.2 -17.3,-12.7 -33.2,-27.8 -44.3,-46.3 10.9,-7.3 21.8,-14.4 33.2,-21 z m -45.9,30.4 c 16.5,25.4 39.7,45.7 65.5,61.1 27.7,16.4 58.3,28.4 90.1,33.3 3.4,0.7 7.2,0.1 10.4,1.3 1.9,6.2 2.5,12.8 3.5,19.2 0.8,5.8 1.6,11.5 1.7,17.4 -37.2,-0.4 -74.5,-8.1 -109,-22.3 -39.8,-16.5 -76.4,-42.9 -100.5,-79.1 12.2,-10.9 24.9,-21.4 38.3,-30.9 z m -69.3,60.5 c 6.1,-6.7 12.6,-13 19.2,-19.2 10.4,14.7 22.4,28.2 36,40.1 -13,0.2 -26.2,-2.1 -38.3,-7 -6.3,-2.7 -12.5,-5.9 -17.7,-10.4 -1.7,-1 0,-2.5 0.8,-3.5 z m -12,14.3 c 19.9,16.2 46.4,23.1 71.8,21.7 4.3,-0.2 8.5,-1.2 12.8,-1.3 4.3,2.3 8,5.5 12.1,7.9 6.6,4.3 13.7,7.9 20.5,12 -18.3,7.3 -38.3,9.1 -57.8,8.3 -26.2,-1.6 -53.1,-9.4 -73.2,-27 3.6,-7.8 8.6,-14.8 13.8,-21.6 z M 1227,1.2 c 3.4,-5 8.4,-8.6 12.9,-12.5 4.9,-3.7 9.9,-7.5 15.4,-10 3.7,-0.4 7.4,1.2 11,2 19.3,4.6 38.7,9.6 58,14.1 0.1,1.5 0.1,3 0.2,4.5 l -103.4,8.8 c 1.9,-2.3 3.9,-4.6 5.9,-6.9 z m 97.5,14.1 c -11.3,4.7 -22.3,10.1 -33.6,14.5 -26.2,11.8 -52.6,23.1 -78.8,34.7 -2,0.8 -4,1.7 -5.9,2.6 l -12.5,-1.4 c 1.6,-6 3.7,-11.8 5.7,-17.6 3.4,-8.9 7.4,-17.6 12.2,-25.8 l 113,-9.6 c -0.1,0.9 -0.1,1.8 -0.1,2.6 z m -131.2,8.5 c -6.6,12.8 -11.6,26.3 -15.2,40.2 L 975.9,42.2 Z m 130.6,55.9 -86.8,-9.3 c 29,-12.7 58,-25.5 87.1,-38 0,6.7 0,13.4 0,20.1 z m 7.4,-98.8 C 1290.8,-29 1250.2,-39 1209.6,-49 c -10.8,-2.7 -21.8,-5.1 -32.6,-8.2 12.4,-8.7 26.1,-15.3 40.2,-20.8 26.2,-10 55.6,-13.8 83.1,-6.3 25.4,6.8 47.3,23 64.1,42.8 6.1,7.2 11.8,14.7 16.8,22.8 -14.1,0.1 -28.2,0 -42.3,0.1 -2.6,0 -5.1,0.1 -7.6,-0.5 z m 247.5,107.2 c -5.8,21.1 -13.6,41.7 -24.6,60.5 -14,24.1 -33.2,45.2 -55.8,61.6 -13.7,10.2 -28.8,18.4 -44,26.2 -3.2,1.4 -5.4,4.6 -5.1,8.1 0,24.8 -0.1,49.7 0,74.7 0.1,12.5 6,24.6 15.7,32.5 2.7,2.2 5.6,4.1 8.5,5.9 -7.3,13.9 -18.2,25.9 -31.3,34.3 -19.3,12.4 -42.9,17.5 -65.8,16.4 -1.6,0.2 -2.7,-1.2 -3.7,-2.1 -11.3,-11.3 -18.7,-26.1 -23.6,-41.2 -7.2,-22.7 -9.7,-46.6 -9.1,-70.4 -0.1,-99.1 0,-198.4 -0.1,-297.5 21.8,-0.4 43.7,0 65.6,-0.3 19.6,0 39.2,-0.1 58.8,0 19.6,-0.1 39.1,-0.1 58.7,0 22,-0.1 44.1,-0.2 66.1,0 0.3,30.7 -2.8,61.5 -10.3,91.3 z M 1399.3,-18.7 c -15,-25.2 -34,-48.5 -58.6,-64.9 1,-4.7 2.1,-9.3 3.5,-13.9 10.3,7.4 21.4,13.9 33.3,18.1 20.1,7.4 41.7,10.1 63,9.1 20,-1.1 40,-5.2 58.1,-14 1.2,-0.5 2.5,-1.2 3.7,-0.4 36.5,15.1 75.9,23.1 115.4,23.4 1.1,14.2 0.7,28.5 0.8,42.6 -73.1,0 -146.1,0.1 -219.2,0 z m 232.7,-63 c -2.6,-31.2 -9.3,-63 -26.4,-89.6 -16.6,-26.4 -41.8,-46 -68.3,-61.6 -9.3,-5.7 -19.1,-10.4 -28.6,-15.6 15.1,-8.5 31,-15.3 47.1,-21.7 2.1,-1.2 4.3,0.3 6.4,1.1 29.6,12.3 57.8,28.5 82.6,49 21.3,17.7 40,38.7 54,62.7 17.4,29.5 26.8,63.5 27.8,97.6 0.9,41.9 1.7,83.6 2.6,125.5 0.9,28.6 3.9,57.4 11.4,85.1 -26,-5.6 -49,-21.5 -65.7,-42 -20.2,-24.9 -31.8,-55.9 -37.2,-87.2 -1.9,-10.9 -3.1,-22 -3.5,-33 -0.3,-23.5 -0.1,-46.9 -2.2,-70.3 z m 207,667.8 c 19,6.5 37.6,13.7 56.4,20.3 4.6,1.9 9.6,3 13.9,5.5 -8.2,14.5 -20.1,26.8 -33.7,36.4 -6.8,4.7 -14,9.1 -21.7,12.2 -12.7,-19 -17.4,-41.9 -20.3,-64.1 -1,-4.4 3.3,-7.1 5.4,-10.3 z m 184.8,17.1 v -0.6 c -5,-0.9 -9.6,-3.2 -14.3,-5.1 -28.1,-12.3 -54.1,-29.3 -77.5,-48.9 -43.3,-36.4 -77.7,-83.3 -99.7,-135.4 -17.6,-41.2 -27.5,-85.4 -31.4,-129.9 0.1,-4.6 -4.3,-8.7 -8.9,-7.9 -4.2,0.4 -7.3,4.6 -6.7,8.7 5.6,67.1 25.4,133.6 61.7,190.6 13,20.7 28.5,39.8 45.1,57.7 -41.3,0.1 -82.7,-3.6 -123.2,-12.1 -33.2,-7.3 -66.1,-17.2 -95.9,-34 0.2,-8.7 0.5,-17.9 -3.8,-25.9 -6.9,-14.2 -22.5,-21.5 -37.4,-24.2 -4.7,-0.7 -10.8,-2.8 -14.4,1.5 -3.9,4.2 -1.2,11.9 4.4,12.6 8.1,1.1 16.2,2.7 23.3,6.8 6.6,3.7 12,10.4 12.3,18.2 0,26.9 0,53.8 0,80.8 -0.4,5.1 4.3,8 7.4,11.2 22.4,21.1 50.1,36.3 79.5,45.1 19.4,5.9 39.6,9.2 59.9,10.5 2.4,0.2 5.1,-0.2 6.8,-2 3.2,-3.3 5.6,-7.2 8.8,-10.5 3.5,19.3 8.8,38.7 19.2,55.7 -14.5,5.4 -29.9,7.9 -45.2,9.2 -35.7,2.6 -71.7,-4 -105,-17 -25.9,-10.1 -50.7,-23.3 -72.5,-40.6 -22.3,-17.5 -41.2,-39.3 -55.5,-63.8 -14.5,-24.6 -24.3,-51.8 -30.9,-79.5 -8,-34.2 -11.2,-69.3 -11.6,-104.4 65.5,0 131,-0.1 196.4,0 10.9,12.9 23.1,24.6 36.5,34.7 3.5,2.4 6.7,5.1 10.5,7.1 4.9,2.3 11.1,-2.1 10.6,-7.5 0,-3.9 -3.5,-6.2 -6.4,-8.1 -24.2,-16.8 -44.1,-39.1 -59.9,-63.8 -17.3,-26.7 -30.1,-56.1 -40,-86.3 -14.9,-45.5 -23.4,-92.7 -28.3,-140.3 -1,-11.4 -2.4,-22.9 -2.6,-34.4 10.6,25.6 26.2,49.7 47.7,67.4 17.8,14.9 39.6,25.1 62.6,28.7 9.5,25.4 23.9,49.7 45,67.1 20.1,16.8 45.5,26.5 71.3,29.8 2.6,0.5 5.9,0.3 7.5,2.8 18.2,21.8 42.1,38.3 68.3,49.6 18.4,8 37.9,13.6 57.5,17.1 7.2,1.3 14.5,2.6 21.8,1.7 2.4,-0.2 4.6,-1.3 6.7,-2.6 -0.1,-1.3 -0.2,-2.7 0,-4.1 -5.2,-6.9 -13.3,-10.6 -19.9,-16 -11,-8.9 -19.5,-20.6 -25.6,-33.2 -7.5,-15.4 -12,-32.2 -14.9,-49 -6.7,-38.4 -5.3,-77.4 -5.4,-116.2 0,-19.1 0,-38 0,-57.1 -0.2,-1.8 0.6,-3.4 1.6,-4.8 14.1,-21 25.2,-43.9 34,-67.6 11.6,-33.3 18.4,-68.3 19.5,-103.5 0.5,-11.9 0.1,-23.9 -0.4,-35.7 42.3,50.2 71.3,112.1 80.1,177.4 2.5,17.1 3.2,34.5 3.1,51.8 -0.1,176.4 0.1,352.9 -0.1,529.3 -20.5,0.2 -41.1,0 -61.5,0.1 -3.4,0.6 -6.7,-0.6 -10.2,-1.2 z m 7.9,390.6 c -32.5,0 -65,0.2 -97.4,-0.1 6.8,-21.6 22.5,-39.1 39.3,-53.7 1.9,-1.4 3.7,-3.9 6.3,-2.9 24.5,6.3 45.4,22.2 61.8,41 -3.7,5 -6.9,10.3 -10,15.7 z m 131.8,-327.1 c 8,10.1 15,21.1 20.9,32.5 2,3.9 4.2,7.7 5.5,12 -21.5,9.8 -40.2,25.5 -54.2,44.6 -16,21.5 -26.8,46.4 -34.2,72 -10.9,38.2 -15.1,78.2 -14.5,117.9 -13,4.3 -25.2,11.5 -35.3,20.9 -14.4,-15.9 -31.4,-29.6 -51.1,-38.1 -2.4,-1 -4.8,-2 -7.1,-3.1 8.7,-6.8 18.8,-11.7 28,-18 9.4,-6.8 13.4,-18.4 15.5,-29.3 3.1,-15.6 3.1,-31.6 3,-47.4 -0.1,-29.6 -3.1,-59 -5.1,-88.4 -2.2,-35.1 -3.5,-70.4 -2.9,-105.6 0.2,-5.6 0.3,-11.1 0.6,-16.6 21,0 42,0.1 63.1,0.2 2.7,0 5.5,-0.3 8.2,0.6 23.9,9.1 44,25.9 59.6,45.8 z m 76.4,-141.4 c -25.6,0.6 -50.4,9.8 -72.3,22.6 -20.6,12.1 -39,27.5 -55.9,44.2 -0.4,-36 -0.1,-72 -0.2,-108 0,-138.6 0,-277.3 0,-415.9 0,-7.4 -0.4,-14.6 -0.6,-21.9 34.3,9.4 69.4,15.9 104.9,19.6 2.9,44.6 7.3,89.1 15.1,133.1 11.5,66.2 29.8,131.5 56.8,193.2 19.4,44.4 43.5,86.9 72.4,125.9 1.8,2.3 3.5,4.6 5.1,7 -41.7,0.3 -83.5,0.1 -125.3,0.2 z m 69.2,-122.8 c -27,-57.5 -45.9,-118.7 -58.5,-181.1 -10.1,-50.7 -16.5,-102.2 -19.1,-153.8 21.2,1.6 42.4,2.1 63.7,1.8 45,-1.5 90.3,-8.2 132.8,-23.3 8.7,-2.9 17,-6.8 25.9,-9.3 17.6,-5 36,-7.5 54.2,-8.2 14.4,-0.5 28.7,0.6 43.1,1.7 61.7,5.1 123.4,18.4 179.7,45 37.7,17.6 72.4,41.6 101.7,71.1 21.5,21.5 40.2,46 52.6,73.9 15.2,33.7 22,70.7 23.9,107.5 -46.8,0 -93.5,0 -140.4,0 -25.4,-0.1 -50.6,2.8 -75.5,7.2 -47.2,8.4 -93.2,23.3 -136.1,44.7 -41.1,20.3 -79.1,47 -111.8,79.3 -8.3,8.2 -16.3,16.8 -24,25.6 -10.9,13 -21.4,26.4 -30.9,40.6 -2,-0.1 -3.8,-0.1 -5.7,-0.1 -29.9,-37.7 -55.2,-79.1 -75.6,-122.6 z m 169.6,649.8 c -29.3,0.5 -58.7,0.1 -88,0.2 1.2,-24.6 10.6,-48.4 24,-68.8 1,-2 3.5,-1.1 5.2,-0.6 23.7,7.3 44.1,23.2 58.5,43.2 1.4,2.1 3.2,4 4.1,6.4 -1.4,6.5 -3,13 -3.8,19.6 z m 113.8,-219.9 c -3.4,8.3 -5.3,17.1 -7.4,25.9 -4.2,19.6 -5.4,39.7 -7.9,59.7 -3.7,3.4 -8.5,5.4 -12.5,8.4 -26.2,17.6 -49.7,40.3 -65.6,67.7 -3.9,6.4 -7,13.3 -10.2,20 -4,-4.3 -7.4,-9 -11.6,-13 -14.4,-14.5 -32,-25.6 -51.3,-32.2 10.7,-13 23.1,-24.5 35.8,-35.6 6,-5.4 12.2,-10.6 17.7,-16.6 4.9,-5.4 9.6,-11.9 9.5,-19.4 0,-12.1 -0.2,-24 0,-36.1 -0.2,-15.2 -0.1,-30.3 0,-45.5 25.1,-0.1 50.3,0 75.4,0 12.1,-0.2 24.1,0.5 36.2,-0.9 -2.4,6.1 -6,11.5 -8.1,17.6 z m 1.3,-32.2 c -12.4,0.8 -24.9,0.4 -37.3,0.4 -56.6,-0.1 -113.1,0.2 -169.6,-0.1 9.9,-10.1 21,-19 32.1,-27.7 24.6,-19.1 51.6,-35.3 80.2,-47.8 32.5,-14.4 67.4,-23.5 102.8,-27.1 20.7,-2.2 41.6,-1.7 62.4,-1.8 26.9,0 53.8,0 80.7,0 18.4,0.2 36.8,-0.4 55,-2.8 21.6,-2.7 43,-7.9 63.5,-15.3 -9.6,9.1 -20.1,17.3 -30.6,25.4 -27.5,20.9 -57.2,38.8 -88.3,53.9 -47.3,22.8 -98.3,39.5 -150.9,42.9 z m 63.5,273.6 c -1.2,5.1 -1.6,10.6 -2.5,15.8 -31.9,0.1 -63.9,0 -95.9,0 2.2,-31.9 16.9,-62 37.9,-85.8 14.1,4.3 27,11.9 38.7,20.7 10.5,7.8 20,16.8 28.6,26.8 -2.6,7.3 -5.3,14.8 -6.8,22.5 z m 160.6,-286.2 c -12.8,5.9 -24.7,14.1 -33.7,25.1 -8.6,10.4 -14,22.9 -17.7,35.7 -4.6,16 -6.9,32.5 -9,49 -3,25.3 -5.5,50.7 -8.4,76 -27.8,11 -53.9,28.4 -71.3,53.1 -2.4,2.9 -3.9,6.6 -6.4,9.4 -4.5,-4 -8.3,-8.6 -12.9,-12.5 -14.6,-13.2 -31.2,-24.4 -49.6,-31.7 4,-5 9.1,-9 13.7,-13.3 7.6,-6.9 15.6,-13.6 23.1,-20.7 4.6,-4.6 9.1,-9.5 11.6,-15.6 1.7,-4.2 1.2,-8.8 1.2,-13.1 0,-41.1 0,-82.3 0,-123.4 32.9,-8.2 64.7,-20.5 95.2,-35.4 28.4,-13.8 55.6,-30.1 81.1,-48.8 8,-5.8 15.5,-12 23.4,-18 5.6,22.3 8.8,45 11.6,67.7 -17.5,4.1 -35.3,8.7 -51.9,16.5 z m 124.9,-200.8 c -10.1,15.6 -21.3,30.6 -33.3,44.8 -9.4,9.9 -20.9,17.7 -33.1,23.9 -31.6,16 -67,22.8 -102.1,24.9 -25.2,0.8 -50.4,0.3 -75.5,0.4 -22.5,0 -45,-0.2 -67.6,0.1 -40.7,0.6 -81.2,8.2 -119.3,22.5 -57.3,21.3 -108.4,57.2 -151,100.8 -11.6,12.1 -22.8,24.6 -33.2,37.9 -5.2,6.4 -9.8,13.3 -15,19.6 -0.2,-21.5 1.6,-43 3.5,-64.5 1.8,-17.8 4.1,-35.6 7.1,-53.3 0.6,-3.7 2.9,-6.8 4.7,-10.1 22.7,-39.1 51.4,-75.3 87.2,-103.1 40.3,-31.7 90.5,-51.8 142,-53.6 41.2,-0.3 82.5,-0.9 123.7,-1 48.3,-0.9 96.6,-0.7 144.8,-1.7 21.3,-0.6 42.6,-1.7 63.8,-4.7 19.5,-2.7 39.1,-7 57.5,-14.4 6.3,-2.3 12.1,-5.7 18.3,-8.4 -6.4,13.9 -14.3,27.1 -22.5,39.9 z m 41.4,-83.1 c -3.6,11.9 -13,21 -23.1,27.8 -14.2,9.3 -30.7,14.5 -47.1,18.4 -43,9.8 -87.2,9.1 -131.1,9.8 -70.8,0.7 -141.6,1.5 -212.4,1.9 -20.4,-0.2 -40.9,1.9 -60.7,6.6 -46.8,10.8 -89.8,35.6 -124.8,68.3 -16.8,15.5 -31.7,32.8 -45.2,51.3 -2,2.7 -3.7,5.6 -6.1,8.1 5,-22 12.1,-43.4 19.9,-64.6 17.1,-45.1 40.5,-88 70.8,-125.6 3.1,-3.6 5.8,-7.8 9.9,-10.3 20.7,-13.7 43.8,-23.6 67.7,-30.5 26.8,-7.6 54.7,-11.3 82.6,-11.2 95.7,-0.1 191.3,-0.7 286.9,-0.4 12,0 23.9,0.4 35.9,0.4 18.9,-0.5 37.6,-4.3 55.4,-10.5 14.9,-5.1 28.9,-12.9 41.1,-23 -3.1,28.4 -10,56.5 -19.7,83.5 z m 22.1,-116 c -0.2,2.5 0.1,5.1 -1.3,7.3 -8.1,12.9 -21.2,22 -34.8,28.5 -20.2,9.3 -42.4,14.2 -64.6,14.8 -49.7,-0.9 -99.4,-0.7 -149.1,-0.4 -49.4,0.1 -98.9,0.4 -148.3,0.4 -11.1,0 -22.3,-0.1 -33.3,0.1 -29.5,0.7 -59.1,5.7 -87.2,14.8 -7.1,2.1 -13.8,5.1 -20.8,7.4 6.6,-6.7 13.9,-12.5 21.2,-18.4 37.3,-30 79.9,-53.3 124.9,-69.7 46.3,-16.8 95.1,-27 144.4,-29.1 68.2,-0.2 136.3,-0.1 204.5,-0.1 9,-0.1 18.4,0.7 27.1,-2 5.3,-1.4 10.1,-4.2 14.7,-6.9 2.4,17.4 3.1,35.4 2.6,53.3 z"
   id="path78" />
	<polygon
   class="st12"
   points="975.9,42.2 1324.7,12.7 1323.9,79.7 "
   id="polygon80" />
	<g
   id="g86">
		<polygon
   class="st13"
   points="1337,94.5 837,40.7 1338.1,-1.8 "
   id="polygon82" />
		<polygon
   class="st13"
   points="1323.9,79.7 1324.7,12.7 975.9,42.2 "
   id="polygon84" />
	</g>
	<g
   id="g104">
		<path
   class="st11"
   d="m 1236.6,18.7 h 3.5 c -2.2,-0.1 -3.5,0 -3.5,0 z"
   id="path88" />
		<path
   class="st11"
   d="m 1290.9,46.2 c -5.8,-29.9 -37.5,-27.5 -37.5,-27.5 h -13.3 c 8.4,0.4 29.4,3.7 34,27.5 7.5,38.7 29.9,33.5 29.9,33.5 h 11.2 c -7.2,-1.1 -19.2,-7 -24.3,-33.5 z"
   id="path90" />
		<path
   class="st11"
   d="m 1315.2,79.7 c 3.3,0.5 5.6,0 5.6,0 z"
   id="path92" />
		<path
   class="st11"
   d="m 1221.7,68.7 h -3.9 c 2.3,0.4 3.9,0 3.9,0 z"
   id="path94" />
		<path
   class="st11"
   d="m 1200.6,43.9 c -4.1,-22.1 -26.5,-20.3 -26.5,-20.3 h -9.4 c 5.9,0.3 20.8,2.7 24,20.3 5.3,28.6 21.2,24.8 21.2,24.8 h 7.9 c -5.1,-0.8 -13.6,-5.2 -17.2,-24.8 z"
   id="path96" />
		<path
   class="st11"
   d="m 1162.2,23.6 h 2.4 c -1.4,-0.1 -2.4,0 -2.4,0 z"
   id="path98" />
		<path
   class="st11"
   d="m 1100,43.8 c -2,-14.1 -11.2,-14.1 -11.2,-14.1 L 1080,31 c 0,0 9.3,-0.5 11.3,13.6 2.4,17 12.8,14.8 12.8,14.8 l 7.1,-1.1 C 1108.9,58.5 1102,58 1100,43.8 Z"
   id="path100" />
		<path
   class="st11"
   d="m 1111.8,58.2 -0.7,0.1 c 0.4,0 0.7,-0.1 0.7,-0.1 z"
   id="path102" />
	</g>
</g>
<g
   id="Layer_1"
   class="st14">
	<path
   class="st15"
   d="M1480.6-386.6c46.4-1.7,93.1,3.7,137.9,16c9,2.6,18.2,5,26.8,8.9c31,13.8,57.5,36.7,77.1,64.4   c21,29.8,33.8,64.8,39.9,100.7c3.8,21,5,42.4,5.2,63.8c0.5,82.1,0.4,164.3,0.3,246.4c-0.1,23.4,0.4,46.8,2.7,70.2   c2.1,22.3,5.8,44.5,12.7,65.8c5.3,16.2,12.5,31.9,22.7,45.6c2.6,3.6,5.7,6.9,8.4,10.5c-33.6-7.7-66.2-21.7-93-43.6   c-23.7-19.3-41.8-45.3-51.4-74.3c-6.9-20.6-9.9-42.5-9.7-64.2c0-76.5,0.1-153,0-229.6c-0.3-41.4-8.2-83-24.7-121   c-13.1-30.3-31.6-58.3-53.9-82.7c-27.9-30.6-61.7-55.7-98.3-74.9C1482.2-385.4,1481.4-386,1480.6-386.6z"
   id="path107" />
	<path
   class="st16"
   d="M1424.7-380.9c6.4-0.8,12.9-2.5,19.4-2.4c13.4,4.6,26.2,11,38.6,17.8c29.2,16.1,56.1,36.3,79.4,60.2   c25.2,25.9,45.8,56.4,59.4,90c15.1,36.7,21.8,76.5,21.2,116.1c0,76.5-0.1,153,0.1,229.5c0.4,23.9,4.5,47.8,13.1,70.2   c3.6,10,8.8,19.3,13.7,28.7c-18.2-3.5-36-10.2-51.4-20.6c-22.9-15.1-40-38-50.8-63c-8.6-19.6-14.1-40.5-17.6-61.6   c-4.3-26.2-5.9-52.7-5.9-79.3c-0.7-15.5-0.7-31-0.9-46.5c-1-26.4-0.9-52.9-1.7-79.3c-1.5-37.2-11.1-74.2-28.7-107.1   c-14.1-26.7-33.3-50.7-55.3-71.3c-25.9-24.3-55.9-44.1-87.7-59.8c-3.6-1.9-7.6-3-10.8-5.7C1380.3-371.8,1402.4-377.2,1424.7-380.9z   "
   id="path109" />
	<path
   class="st15"
   d="M1331.6-355.4c2.4-1.4,4.9,0.3,7.2,1.1c33.4,13.9,65.2,32.2,93.1,55.3c24,19.9,45.2,43.6,60.9,70.7   c19.5,33.3,30.2,71.6,31.3,110.1c1,47.2,1.9,94.3,2.9,141.5c1,32.3,4.4,64.7,12.9,96c-29.3-6.3-55.3-24.4-74.1-47.4   c-22.9-28.1-36-63-42-98.4c-2.1-12.3-3.4-24.7-4-37.2c0-26.4,0.2-52.8-2.2-79.1c-2.9-35.2-10.6-71-29.8-101.1   c-18.7-29.7-47.1-51.8-77-69.5c-10.5-6.4-21.6-11.7-32.3-17.6C1295.5-340.5,1313.5-348.1,1331.6-355.4z"
   id="path111" />
	<path
   class="st16"
   d="M1719.1-329.1c6.3,2.7,12,6.6,17.9,10c32.3,19.8,62.1,43.6,88.4,70.9c1.9,2,1.7,5,2.2,7.5   c8.8,72.4-4.2,147.7-38.5,212.3c-1.1,2.3-2.4,4.6-4.2,6.4c-0.1-28.1-0.1-56.2-0.2-84.3c-0.2-23.1,0.3-46.2-2.1-69.2   c-4.2-42.1-16.1-83.9-38.4-120.1C1737-307.5,1728.1-318.4,1719.1-329.1z"
   id="path113" />
	<path
   class="st16"
   d="M1259.3-320.6c31.3,14.6,62.3,31.5,87.8,55.1c20.1,18.5,35.4,42.3,43.1,68.6c-7.5,0-14.8-2-22.1-3.5   c-34.6-8.3-67.4-23.5-96.3-44.2c-19.5-14.3-37.5-31.4-50-52.2C1234-305.1,1246.4-313.2,1259.3-320.6z"
   id="path115" />
	<path
   class="st15"
   d="M1164.3-251.5c13.8-12.3,28.2-24.1,43.2-34.9c18.6,28.6,44.8,51.5,73.9,68.9c31.2,18.6,65.7,32,101.6,37.5   c3.8,0.8,8.1,0.2,11.7,1.5c2.2,7,2.8,14.5,3.9,21.7c0.8,6.5,1.7,13,1.9,19.6c-42.1-0.5-84-9.2-122.9-25.2   C1232.7-180.9,1191.4-210.7,1164.3-251.5z"
   id="path117" />
	<path
   class="st16"
   d="M1129.4-218.1c7-7.5,14.3-14.7,21.7-21.6c11.7,16.6,25.3,31.8,40.6,45.2c-14.7,0.2-29.5-2.4-43.2-7.9   c-7.1-3-14.2-6.6-20-11.7C1126.5-215.3,1128.4-217,1129.4-218.1z"
   id="path119" />
	<path
   class="st17"
   d="M1846.9-224.1c47.8,56.6,80.4,126.4,90.6,200c2.8,19.3,3.7,38.9,3.5,58.4c-0.1,199,0.1,398-0.1,597   c-23.1,0.3-46.3,0-69.4,0.1c-4,0.1-7.8-1.2-11.7-1.8v-0.7c0.2-88.4,0-176.8,0.1-265.1c-0.3-12.9,0.7-25.8-0.5-38.7   c-0.1-1.5-0.2-3.1,0-4.6c1.2-9.6,0.3-19.3,0.6-28.9c0-79.8,0-159.6,0-239.5c0.2-18.2-2-36.4-5.2-54.3c-3.9-19.6-9.4-39.5-21.1-56.1   c-2.2-3.4-5-6.4-8.2-8.8c13.2-37.5,20.8-76.9,22-116.7C1847.9-197.2,1847.4-210.7,1846.9-224.1z"
   id="path121" />
	<path
   class="st15"
   d="M1115.8-202c22.5,18.3,52.3,26.1,81,24.5c4.8-0.1,9.6-1.4,14.4-1.5c4.8,2.6,9,6.1,13.7,8.9   c7.5,4.9,15.5,8.9,23.1,13.5c-20.6,8.2-43.2,10.3-65.2,9.4c-29.6-1.8-59.8-10.5-82.5-30.4C1104.3-186.4,1110-194.3,1115.8-202z"
   id="path123" />
	<path
   class="st18"
   d="M1093.1-160.6c11.6,8.4,24,15.7,37.6,20.5c22.6,8.2,47,11.4,71,10.3c22.5-1.2,45.1-5.9,65.5-15.8   c1.3-0.6,2.8-1.3,4.2-0.5c41.2,17,85.7,26,130.2,26.4c1.3,16,0.8,32.1,0.9,48.1c-82.4,0-164.8,0.1-247.2,0   c-16.9-28.4-38.4-54.7-66.1-73.2C1090.2-150.2,1091.5-155.4,1093.1-160.6z"
   id="path125" />
	<path
   class="st19"
   d="M949.7-138.6c29.6-11.3,62.7-15.6,93.6-7c28.6,7.7,53.4,25.9,72.3,48.3c6.9,8.1,13.3,16.6,18.9,25.7   c-15.9,0.1-31.8,0-47.7,0.1c-2.8,0-5.6,0.1-8.4-0.5c-45.8-11.3-91.6-22.5-137.3-33.7c-12.3-3.1-24.7-5.7-36.8-9.3   C918.3-124.8,933.8-132.4,949.7-138.6z"
   id="path127" />
	<path
   class="st20"
   d="M975.5-63.3c5.5-4.2,11.2-8.5,17.6-11.4c4.3-0.4,8.3,1.5,12.4,2.3c21.8,5.3,43.5,10.8,65.4,15.9   c0.4,7.7,0.3,15.4,0.1,23.1c-12.7,5.3-25.1,11.4-37.9,16.3c-4.4-5.1-9.5-9.7-15.4-13.1c-8.8-5.5-19.2-7.5-29-10.6   c-9.2-2.9-18.6-5.3-27.6-8.5C964.7-54.9,970.4-58.9,975.5-63.3z"
   id="path129" />
	<path
   class="st19"
   d="M1825.3-67.1c3.2,2.4,6,5.4,8.2,8.8c11.7,16.6,17.2,36.5,21.1,56.1c3.3,17.9,5.5,36.1,5.2,54.3   c0,79.8,0,159.6,0,239.5c-0.2,9.6,0.6,19.3-0.6,28.9c-5.9-7.8-15-11.9-22.4-18c-12.4-10-21.9-23.1-28.9-37.4   c-8.5-17.4-13.4-36.3-16.8-55.3c-7.5-43.3-5.9-87.3-6.1-131c0-21.5,0-42.9,0-64.4c-0.2-2,0.7-3.8,1.8-5.4   C1802.9-14.6,1815.5-40.4,1825.3-67.1z"
   id="path131" />
	<path
   class="st19"
   d="M1088.2-53.9c24.6-0.6,49.2-0.1,73.9-0.2c22.1,0,44.2,0,66.3,0c-0.4,19.7,2.2,39.3,7.3,58.3   c4.6,16.3,10.6,32.3,19.6,46.8c13.6,22.9,33.2,42.1,56.1,55.7c6,3.7,13,5.8,18.5,10.3c-15.9,27.2-37.5,51-62.9,69.5   c-15.5,11.5-32.5,20.8-49.6,29.6c-3.5,1.5-6,5.1-5.7,9.1c0,28.1,0,56.2,0,84.2c0.1,14.1,6.8,27.8,17.7,36.7c3,2.5,6.3,4.6,9.6,6.7   c-8.2,15.6-20.4,29.1-35.3,38.7c-21.9,14-48.4,19.8-74.2,18.5c-1.8,0.1-3-1.3-4.2-2.4c-12.8-12.8-21-29.5-26.6-46.5   c-8.1-25.6-11-52.6-10.3-79.4C1088.2,169.8,1088.4,58,1088.2-53.9 M1183.3,60.5c-3.2,1.5-5.1,4.9-5,8.4c0,13.9,0,27.7,0,41.6   c0.4,8.4-4.8,18-13.6,19.5c-5.6,1.3-7.8,8.7-4.5,13.2c2.6,3.9,7.8,4.4,11.9,3c14.5-4.5,23.8-19.9,23.8-34.6   c-0.1-14.5,0.1-29.1-0.1-43.6C1195.8,61.8,1188.5,57.7,1183.3,60.5z"
   id="path133" />
	<path
   class="st21"
   d="M1228.3-54.1c22.1-0.1,44.1-0.1,66.2,0c0.8,18.2,5.9,36.2,14.3,52.4c7.7,15.2,19.4,28.1,32.6,38.7   c5.1,4.3,11.4,7,16.1,11.8c-6.4,23.7-15.3,46.9-27.8,68.2c-5.5-4.5-12.5-6.6-18.5-10.3c-22.9-13.6-42.5-32.7-56.1-55.7   c-9-14.4-15-30.5-19.6-46.8C1230.5-14.7,1228-34.4,1228.3-54.1z"
   id="path135" />
	<path
   class="st22"
   d="M1294.5-54.1c24.8-0.1,49.7-0.2,74.5,0c0.4,34.6-3.1,69.3-11.6,102.9c-4.7-4.8-11-7.5-16.1-11.8   c-13.2-10.6-24.9-23.5-32.6-38.7C1300.5-17.9,1295.3-35.8,1294.5-54.1z"
   id="path137" />
	<path
   class="st23"
   d="M929.6,3.6c7.3-19.2,17.3-37.7,31.3-52.8c9.1,3.3,18.4,5.7,27.6,8.5c9.8,3.1,20.2,5,29,10.6   c5.9,3.4,11,7.9,15.4,13.1C1003.4-3.7,973.6,9,944,22.1c-7.6,3.1-14.9,6.9-22.6,9.5C923,22,926.4,12.8,929.6,3.6z"
   id="path139" />
	<path
   class="st19"
   d="M2344.6-9.2c19.9-5.7,40.6-8.6,61.3-9.1c16.2-0.5,32.4,0.8,48.6,1.9c69.7,5.8,139.3,20.7,202.7,50.7   c42.5,19.9,81.6,47,114.7,80.2c24.2,24.2,45.3,51.9,59.3,83.3c17.1,38,24.9,79.7,26.9,121.2c-52.8-0.1-105.5,0-158.3,0   c-28.6-0.1-57.1,3.2-85.2,8.1c-53.2,9.5-105.1,26.2-153.5,50.4c-46.3,23.1-89.2,53.2-126,89.6c-9.5,9.2-18.4,19-27.1,28.9   c-7.9-9-14.1-19.4-20.6-29.4c-37.3-58.1-65.7-121.6-86.8-187.2c-24.7-78.1-39.7-159.2-44-241c-0.1-3.2-0.1-6.4,0-9.6   c3-0.3,6.1-0.7,9.1-1c50.8-1.7,101.7-9.3,149.8-26.3C2325.3-2,2334.7-6.4,2344.6-9.2z"
   id="path141" />
	<path
   class="st18"
   d="M1957.8,1.7c38.7,10.6,78.3,17.9,118.3,22.1c3.2,50.3,8.2,100.5,17,150.1c13,74.7,33.6,148.4,64.1,217.9   c22,50.1,49.1,98,81.7,142c1.9,2.6,3.9,5.2,5.8,7.9c-47.2,0.2-94.3,0-141.5,0.1c-28.9,0.6-56.8,10.9-81.5,25.5   c-23.2,13.5-44,31-63,49.9c-0.4-40.6-0.1-81.2-0.2-121.8c0-156.3,0-312.7,0-469C1958.5,18.1,1957.9,9.9,1957.8,1.7z"
   id="path143" />
	<path
   class="st17"
   d="M2093.8,25.6c23.9,1.8,47.9,2.4,71.8,2c-3,0.3-6.1,0.7-9.1,1c-0.1,3.2-0.2,6.4,0,9.6   c4.3,81.8,19.2,163,44,241c21.1,65.6,49.4,129.2,86.8,187.2c6.5,10,12.7,20.4,20.6,29.4c-12.3,14.7-24.2,29.9-34.8,45.8   c-2.1,0-4.3,0-6.4-0.1c-33.7-42.6-62.2-89.2-85.3-138.3c-30.6-64.9-51.8-134-66-204.2C2104,141.9,2096.8,83.9,2093.8,25.6z"
   id="path145" />
	<path
   class="st19"
   d="M1421.4,30.1c12,28.9,29.5,56,53.8,76c20.1,16.8,44.7,28.3,70.6,32.4c10.6,28.7,26.9,56.1,50.8,75.7   c22.7,18.9,51.2,29.9,80.4,33.6c3,0.5,6.7,0.3,8.5,3.2c20.5,24.6,47.5,43.2,76.8,55.8c20.8,9,42.7,15.2,64.9,19.3   c8.1,1.5,16.4,2.9,24.6,1.9c2.7-0.2,5.2-1.6,7.5-2.9c1.2,12.9,0.2,25.8,0.5,38.7c0,88.4,0.1,176.8-0.1,265.1   c-5.7-1-10.8-3.6-16.1-5.7c-31.7-13.9-60.9-33-87.4-55.2c-48.8-41.1-87.6-93.9-112.4-152.7c-19.8-46.4-31-96.3-35.4-146.5   c0.1-5.2-4.8-9.8-10-8.9c-4.6,0.5-8.2,5.2-7.5,9.8c6.3,75.7,28.6,150.7,69.6,215c14.7,23.4,32,45,50.9,65.1   c-46.6,0.1-93.3-4.1-138.9-13.7c-37.4-8.2-74.7-19.4-108.2-38.3c0.1-9.9,0.5-20.3-4.3-29.2c-7.8-16.1-25.4-24.4-42.2-27.3   c-5.3-0.8-12.2-3.2-16.2,1.7c-4.4,4.7-1.4,13.4,5,14.2c9.1,1.2,18.3,3,26.3,7.7c7.4,4.2,13.5,11.7,13.9,20.5c0,30.4,0,60.7,0,91.1   c-0.4,5.7,4.8,9,8.4,12.6c25.3,23.8,56.5,40.9,89.7,50.9c21.9,6.6,44.6,10.3,67.5,11.8c2.7,0.2,5.7-0.2,7.7-2.2   c3.6-3.7,6.3-8.2,9.9-11.8c3.9,21.8,9.8,43.8,21.6,62.8c-16.3,6.2-33.7,9-51,10.4c-40.3,2.9-80.9-4.5-118.4-19.2   c-29.2-11.3-57.2-26.3-81.8-45.8c-25.2-19.8-46.5-44.3-62.6-71.9c-16.3-27.8-27.5-58.4-34.8-89.7c-9-38.5-12.6-78.2-13.1-117.7   c73.8,0,147.6-0.1,221.5,0c12.3,14.4,26,27.7,41.2,39.1c3.9,2.7,7.5,5.8,11.8,8c5.6,2.6,12.6-2.4,11.9-8.5c0-4.4-3.9-7-7.2-9.1   c-27.3-18.8-49.7-44.1-67.6-71.9c-19.5-30.1-33.9-63.3-45.1-97.3c-16.8-51.3-26.4-104.6-31.9-158.2   C1423.2,56,1421.6,43.1,1421.4,30.1z"
   id="path147" />
	<path
   class="st24"
   d="M1183.3,60.5c5.3-2.8,12.5,1.4,12.5,7.4c0.2,14.5,0,29.1,0.1,43.6c0.1,14.8-9.3,30.2-23.8,34.6   c-4.1,1.4-9.4,0.9-11.9-3c-3.3-4.5-1.1-11.9,4.5-13.2c8.9-1.5,14.1-11,13.6-19.5c0-13.9,0-27.7,0-41.6   C1178.2,65.4,1180.1,61.9,1183.3,60.5z"
   id="path149" />
	<path
   class="st15"
   d="M2815.4,137.2c17.9,6.9,35,15.8,51,26.3c10.8,7.2,21.4,14.9,30.6,24.1c-17.2,0.2-34.3,0.2-51.5-0.1   c-7.4-16-16.5-31.2-26.9-45.4C2817.4,140.5,2816.3,138.8,2815.4,137.2z"
   id="path151" />
	<path
   class="st16"
   d="M2853.2,205.2c19.5-0.4,38.9,0,58.4-0.1c1.7-0.2,3.3,0.5,4.3,2c7.7,9.4,14.6,19.4,20.6,30   c2.8,5.4,6.1,10.6,7.9,16.5c-25.7,0-51.3,0-77,0C2863.8,237.1,2859,221,2853.2,205.2z"
   id="path153" />
	<path
   class="st15"
   d="M2870.7,270.9c27,0.1,54-0.1,81,0.1c3.6,10.4,6.6,20.9,8.9,31.6c0.7,2.3-1.2,4.2-2.5,5.8   c-6.7,7.4-17,10.5-26.8,10.5c-18.5,0-37,0-55.4,0c-1-9.5-1.4-19-2.6-28.4C2872.5,284,2871.3,277.5,2870.7,270.9z"
   id="path155" />
	<path
   class="st16"
   d="M2948,334c6-1.6,11.4-4.7,16.7-7.8c2.7,20,3.4,40.2,3,60.4c-0.1,2.7,0.2,5.8-1.5,8.2   c-9.1,14.7-23.8,24.8-39.2,32.1c-22.8,10.5-47.9,16.1-72.9,16.7c-56.1-0.9-112.1-0.7-168.2-0.5c-55.7,0.1-111.5,0.5-167.2,0.4   c-12.5,0-25.1-0.1-37.6,0.1c-33.4,0.8-66.6,6.4-98.3,16.7c-8,2.4-15.6,5.8-23.5,8.3c7.4-7.6,15.7-14.2,23.9-20.8   c42.2-33.8,90.2-60.1,140.9-78.6c52.2-18.9,107.2-30.4,162.8-32.8c76.9-0.2,153.7,0,230.6-0.1C2927.6,336.2,2938.1,337.2,2948,334z   "
   id="path157" />
	<path
   class="st15"
   d="M2918.6,449c16.8-5.8,32.6-14.5,46.3-25.9c-3.6,32.2-11.4,63.9-22.3,94.4c-4.1,13.4-14.7,23.7-26.1,31.3   c-16,10.5-34.6,16.4-53.1,20.8c-48.4,11-98.4,10.3-147.8,11c-79.8,0.8-159.6,1.7-239.5,2.1c-23-0.2-46.1,2.1-68.5,7.4   c-52.8,12.2-101.3,40.1-140.7,77c-18.9,17.5-35.8,37-51,57.8c-2.2,3.1-4.3,6.3-6.9,9.1c5.7-24.7,13.6-49,22.4-72.8   c19.3-50.9,45.7-99.2,79.9-141.7c3.4-4.1,6.5-8.8,11.2-11.6c23.3-15.6,49.4-26.7,76.3-34.4c30.2-8.7,61.7-12.7,93.1-12.6   c107.9-0.1,215.7-0.8,323.6-0.5c13.5,0,27,0.4,40.5,0.4C2877.3,460.3,2898.5,456.1,2918.6,449z"
   id="path159" />
	<path
   class="st16"
   d="M2900.9,575.9c7.1-2.6,13.6-6.4,20.4-9.5c-7.4,15.6-16.3,30.4-25.6,44.8c-11.5,17.6-24,34.5-37.6,50.5   c-10.6,11.3-23.6,20-37.3,27c-35.6,18-75.5,25.6-115.1,28.1c-28.4,0.9-56.8,0.3-85.2,0.5c-25.4,0.1-50.8-0.2-76.2,0.1   c-45.8,0.7-91.5,9.3-134.5,25.4c-64.6,24.1-122.4,64.5-170.3,113.7c-13.2,13.6-25.7,27.8-37.4,42.7c-5.9,7.1-10.9,15-16.9,22.1   c-0.2-24.3,1.8-48.5,4-72.7c2-20.1,4.6-40.2,8-60.1c0.7-4.2,3.3-7.7,5.3-11.4c25.6-44.1,58-84.9,98.4-116.3   c45.5-35.8,102.1-58.4,160.2-60.4c46.5-0.3,93-1,139.5-1.1c54.4-1,108.9-0.8,163.3-1.9c24.1-0.7,48.2-1.9,72-5.3   C2858.2,589,2880.2,584.2,2900.9,575.9z"
   id="path161" />
	<path
   class="st25"
   d="M1651.1,610.4c21.3,7.3,42.4,15.4,63.6,23c5.2,2.1,10.8,3.4,15.7,6.2c-9.4,16.3-22.7,30.1-38,41   c-7.7,5.3-15.8,10.4-24.5,13.8c-14.3-21.4-19.6-47.2-22.9-72.3C1644,617.1,1648.7,614,1651.1,610.4z"
   id="path163" />
	<path
   class="st18"
   d="M1869.6,648.8c23.7-0.1,47.5,0,71.2,0c3.1,0,6.3-0.3,9.2,0.7c26.8,10.2,49.5,29.2,67.1,51.6   c9,11.4,16.9,23.8,23.6,36.7c2.2,4.4,4.7,8.8,6.2,13.5c-24.3,11.1-45.3,28.9-61.1,50.3c-18.1,24.2-30.2,52.3-38.6,81.2   c-12.3,43.2-16.9,88.2-16.4,133c-14.8,4.9-28.4,12.9-39.8,23.6c-16.1-17.9-35.4-33.3-57.6-43c-2.7-1.1-5.4-2.3-8-3.5   c9.9-7.7,21.3-13.2,31.6-20.3c10.6-7.6,15.1-20.7,17.5-33c3.5-17.6,3.4-35.6,3.4-53.5c-0.1-33.3-3.6-66.5-5.7-99.7   c-2.5-39.6-3.9-79.4-3.3-119.1C1869,661.3,1869.1,655,1869.6,648.8z"
   id="path165" />
	<path
   class="st15"
   d="M2735,731.4c24.4-3.1,48.5-8.9,71.6-17.3c-10.8,10.4-22.7,19.6-34.5,28.7c-31.1,23.5-64.6,43.8-99.6,60.8   c-53.3,25.7-110.8,44.4-170.1,48.3c-14,0.9-28.1,0.3-42.1,0.5c-63.8-0.1-127.5,0.2-191.3-0.1c11.1-11.4,23.7-21.3,36.2-31.2   c27.9-21.5,58.3-39.8,90.5-53.9c36.7-16.2,76-26.5,115.9-30.6c23.4-2.6,46.9-2,70.4-2c30.3,0,60.7,0,91,0   C2693.7,734.8,2714.4,734.2,2735,731.4z"
   id="path167" />
	<path
   class="st19"
   d="M2774.4,762.9c9-6.5,17.6-13.5,26.4-20.3c6.3,25.1,9.9,50.8,13.1,76.4c-20,4.6-40.1,9.8-58.8,18.6   c-14.4,6.7-28,15.9-38,28.3c-9.6,11.7-15.8,25.8-20,40.3c-5.2,18-7.8,36.7-10.1,55.3c-3.4,28.5-6.2,57.1-9.5,85.7   c-31.4,12.4-60.8,32-80.4,59.9c-2.7,3.3-4.4,7.4-7.2,10.6c-5.1-4.4-9.4-9.7-14.5-14.1c-16.5-14.9-35.2-27.5-55.9-35.8   c4.5-5.6,10.3-10.1,15.5-15c8.7-7.8,17.7-15.2,26-23.4c5.2-5.2,10.4-10.7,13.1-17.6c1.9-4.7,1.4-9.9,1.4-14.8   c0-46.4,0-92.8,0-139.2c37.1-9.4,73.1-23.1,107.4-39.9C2714.9,802.2,2745.6,783.9,2774.4,762.9z"
   id="path169" />
	<path
   class="st20"
   d="M2469.2,869.4c13.6-0.2,27.2,0.6,40.8-1c-2.7,6.7-6.7,12.9-9.1,19.8c-3.8,9.4-6.1,19.4-8.4,29.2   c-6.5-0.7-12.9,0.9-19.3,1.3c-12.2,1.1-24.4,2.2-36.6,2c-17.5,0-34.9,0-52.4,0c-0.2-17.1-0.1-34.2,0-51.3   C2412.5,869.4,2440.8,869.5,2469.2,869.4z"
   id="path171" />
	<path
   class="st23"
   d="M2473.2,918.8c6.4-0.5,12.8-2.1,19.3-1.3c-4.7,22.2-6.2,44.9-8.9,67.3c-4.2,3.8-9.6,6-14.1,9.5   c-29.6,19.9-55.9,45.4-74,76.4c-4.4,7.2-7.9,15-11.5,22.6c-4.5-4.7-8.4-10.1-13.1-14.7c-16.1-16.3-36-28.9-57.8-36.3   c12.1-14.7,26.2-27.6,40.4-40.2c6.8-6.1,13.8-12,20-18.7c5.5-6,10.8-13.3,10.7-21.9c0-13.6-0.1-27.1,0-40.7c17.5,0,34.9,0,52.4,0   C2448.8,921,2461,919.9,2473.2,918.8z"
   id="path173" />
	<path
   class="st25"
   d="M1802.8,1009.5c2.1-1.6,4.2-4.4,7.1-3.3c27.6,7.1,51.2,25,69.7,46.2c-4,5.7-7.7,11.7-11.2,17.8   c-36.6,0-73.3,0.2-109.9-0.1C1766.2,1045.8,1783.9,1026,1802.8,1009.5z"
   id="path175" />
	<path
   class="st25"
   d="M2300.4,1058.8c1.1-2.3,4-1.2,5.9-0.8c26.7,8.2,49.8,26.2,66,48.7c1.6,2.3,3.6,4.4,4.6,7.2   c-1.6,7.4-3.5,14.7-4.3,22.2c-33.1,0.6-66.2,0.1-99.3,0.2C2274.7,1108.6,2285.2,1081.8,2300.4,1058.8z"
   id="path177" />
	<path
   class="st25"
   d="M2505.9,1081.4c15.9,4.9,30.4,13.4,43.7,23.3c11.8,8.9,22.6,19,32.2,30.2c-3,8.3-6.1,16.7-7.7,25.4   c-1.4,5.9-1.8,11.9-2.8,17.8c-36,0.2-72.1,0.1-108.1,0C2465.7,1142.1,2482.3,1108.2,2505.9,1081.4z"
   id="path179" />
	<path
   class="st26"
   d="M2984.5,352.8c-2-40.2-10.4-80.6-28.8-116.5c-15-29.5-36.8-55.4-63-75.6c-28-21.8-60.4-37.3-94-48.5   c-3-1.1-6.6-1.5-8.7-4.2c-35.5-37.1-78-67.3-124.4-89.2c-63.8-30.2-133.8-45.9-203.9-52.2c-14.7-1.2-29.4-2.3-44.1-2.6   c-24.7-0.3-49.5,2.4-73.4,8.7c-14,3.4-26.9,9.6-40.5,14c-46.4,15.5-95.4,22.5-144.3,23.4c-47.5,0.9-95-3.7-141.6-12.5   c-20.8-4.1-41.6-8.5-61.9-14.9c-7-62.8-29.9-123.5-64.5-176.3c-40-61.1-95.1-112-158.5-148.2c-67.8-38.8-145.4-60.8-223.6-62.5   c-47.9-1.1-95.9,5.3-142,18.5c-42.7,12.3-83.7,30.4-122.1,53.4c-40.4,23.9-77.7,52.9-111.6,85.3c-16.6,15.9-32.4,32.9-44.3,52.7   c-7.6,12.5-12.9,26.3-16.4,40.5c-7.9-3.6-15.9-7-24.3-9.2c-24.5-6.9-50.7-6.6-75.4-1c-27.8,6.2-54.1,18.4-78,33.8   c-6.1,4.1-12.2,8.2-17.8,12.9c-3.7,3-4,9.1-0.7,12.5c2.3,2.6,6,2.9,9.2,3.8c27.8,6.8,55.5,13.6,83.3,20.4c-0.9,1.2-2.1,2.2-3.3,3.2   c-7.6,5.8-14.5,12.6-20.7,19.9c-4.8,5.7-9.2,11.8-13.2,18L521-4.8l381.3,41.1c-0.7,3.6-1.4,7.2-1.6,11c0.1,5.8,6.9,10,12.2,7.4   c10.5-4.6,21.1-9.2,31.6-13.8l125.9,13.6c0,71.2,0,142.4,0,213.5c0.1,14.4-0.4,29,0.9,43.4c2.2,25.6,7.4,51.2,18.1,74.6   c6.7,14.6,16,28.3,28.3,38.9c3.1,2.8,7.6,2.5,11.5,2.8c26.4,0.9,53.3-4.3,76.5-17c23.9-12.9,42.7-34.5,53.2-59.4   c1.7-4.2-0.9-9.5-5.2-10.9c-7-2.5-13.6-6.6-18.2-12.5c-4.5-5.8-6.7-13.1-6.6-20.4c0-24.4,0.1-48.8,0-73.2c0.2-1.5-0.3-3.3,0.6-4.6   c3.7-2.3,7.8-4.1,11.6-6.3c26.6-14.3,51.6-32.1,72.2-54.4c24.2-25.9,42.2-57.3,53.7-90.8c14.7-42.4,19.7-87.5,19.6-132.1   c5-0.1,10.1-0.1,15.2,0c-0.8,38.5,0.6,77.1,4.2,115.5c4.1,44,11,87.7,21.9,130.5c10.2,39.9,24,79.2,43.4,115.7   c7.5,14.4,16.4,28,25.5,41.4c-72,0.3-144.1,0-216.1,0.1c-4-0.1-7.7,2.9-8.5,6.8c-0.4,3.2-0.1,6.5-0.1,9.7   c0.8,59,7.8,118.8,28.8,174.1c12.3,31.5,29.7,61.1,52.1,86.4c20.6,23.3,45.3,42.9,72.3,58.3c28.5,16.2,59.1,28.8,90.9,36.6   c37.7,9,77.4,10.9,115.4,3c28.7-6,56.5-17.9,79.3-36.6c16.5-13.4,30.1-30.4,39.3-49.6c2.2-4.6-0.6-10.3-5.3-11.8   c-31.2-11.4-62.4-22.6-93.6-34c-3.6-1.5-8-0.5-10.4,2.7c-10.4,13.1-20.9,26.1-31.3,39.2c-45.4-3-91.1-16.7-127.6-44.6   c-6.2-5-12.8-9.9-18.1-16c-0.2-18.5-0.1-37,0-55.5c32.8,16.4,68.2,27.4,104,35.1c51.7,11,104.8,15.1,157.6,14.3   c1.4,0.1,3.1-0.3,4.3,0.9c35.6,32.3,76.6,59.3,121.7,76.4c-2.4,59.4,0.6,118.8,5.2,178c2.4,32.3,4.7,64.8,2.4,97.2   c-1.2,11.2-2.2,22.9-7.8,32.9c-3.3,6-9.8,8.8-15.4,12.3c-26.1,15.5-51.1,33.7-70.5,57.2c-13.1,15.9-23.4,34.5-27.2,54.9   c-1.4,5.4,3.5,11,9,10.6c42,0,83.9,0,125.8,0c3.8,0.2,7.4-2.2,8.7-5.8c10.4-24.5,32.3-44.1,58.3-50.6c4.2-0.7,8.3-4.1,8.2-8.6   c-1.4-42.8,2.3-86,13-127.5c8.1-30.4,20.2-60.3,39.5-85.3c15.5-20.3,36.2-36.7,60.1-45.9c4.7-1.5,7.3-7.2,5.3-11.8   c-4.7-12.4-10.8-24.3-17.6-35.7c-20.1-33.6-48.3-63.7-84.4-80.1c13.3-14.7,28.1-28.1,44-39.9c24.1-17.8,51.7-32.3,81.7-36.4   c10.2-1.4,20.5-0.9,30.7-1c45.2,0,90.4,0,135.6,0c1.5-0.2,2.7,0.8,3.9,1.5c-0.7,1.2-1.3,2.5-2,3.7   c-38.4,63.9-62.6,135.6-76.1,208.7c-10.4,56.5-14.9,113.9-14.9,171.3c0.2,4-0.9,8.3,1.1,11.9c2.8,5.3,11.2,5.8,14.5,0.8   c19-31.6,42.1-60.6,67.6-87.2c38.7-0.1,77.3-0.1,116,0c0.1,30.2,0,60.4,0.1,90.5c0.4,4.8-3.4,8.4-6.4,11.7   c-11.7,11.8-24.7,22.1-36.6,33.6c-14.2,13.4-27.4,27.8-38.1,44.1c-18.8,27.9-29.5,61.1-30.2,94.7c-0.3,4.8,4.2,9.1,9,8.8   c38.6,0,77.3,0,115.9,0c4.1,0.3,8.2-2.8,8.8-6.9c1.4-28.7,13-56.2,29.3-79.6c19.9-28.5,47.2-51,77.1-68.4c2.8-1.5,4.8-4.3,5-7.5   c3.3-27.8,4.7-56,12.2-83.1c4-14.5,10-28.9,20.1-40.3c1.3-1.9,3.7-1.8,5.7-2.2c6.5-1,13-2.2,19.5-3.6c0,47.1,0,94.1,0,141.2   c0.3,4.7-3.5,8-6.3,11.2c-10.9,10.9-23,20.5-34.3,31c-13.8,12.7-26.8,26.3-37.7,41.5c-21.2,29-33.6,64.4-34.2,100.4   c-0.1,4.7,4.4,8.7,9,8.5c41.6,0,83.1,0,124.7,0c4.8,0.4,9.4-3.7,9.3-8.6c-0.2-24.9,8.5-49.4,22.8-69.6c18.4-26,46.2-44,75.7-54.9   c3.2-1,6.4-3.4,6.9-7c5.4-39.1,7.8-78.5,14.3-117.4c3.5-19,8.4-38.4,19.5-54.6c9-13.1,22.1-23,36.4-29.9   c17.8-8.6,37-13.7,56.3-17.8c3.7-0.8,8.1-1.1,10.4-4.6c2.2-2.8,1.6-6.4,1.2-9.6c-3.9-30.8-8.2-61.7-16.2-91.7   c17.9-16,35-32.9,50.7-51c46.5-53.2,82.4-116,101.9-184.1C2981.4,448.7,2987,400.6,2984.5,352.8z M2960.5,302.7   c0.7,2.3-1.2,4.2-2.5,5.8c-6.7,7.4-17,10.5-26.8,10.5c-18.4,0-36.9,0.1-55.4,0c-0.9-9.5-1.4-19-2.6-28.4c-0.7-6.6-2-13.1-2.5-19.7   c27,0.1,54-0.1,80.9,0.2C2955.2,281.4,2958.2,292,2960.5,302.7z M2915.8,207.2c7.8,9.4,14.7,19.4,20.6,30   c2.8,5.4,6.1,10.6,7.9,16.5c-25.7,0-51.3-0.1-77,0c-3.5-16.5-8.3-32.7-14.1-48.5c19.4-0.5,38.9,0,58.3,0   C2913.2,205.1,2914.8,205.7,2915.8,207.2z M2866.4,163.4c10.8,7.2,21.4,14.9,30.6,24.1c-17.2,0.2-34.4,0.2-51.5-0.1   c-7.4-16-16.5-31.2-26.9-45.4c-1.2-1.5-2.2-3.1-3.2-4.8C2833.3,144.1,2850.3,153,2866.4,163.4z M1737-319   c32.3,19.8,62.1,43.6,88.4,70.9c1.9,2,1.7,4.9,2.2,7.5c8.8,72.5-4.3,147.7-38.5,212.3c-1.2,2.3-2.4,4.6-4.2,6.4   c-0.1-28.1-0.1-56.2-0.2-84.3c-0.1-23.1,0.4-46.2-2.1-69.2c-4.2-42.1-16-84-38.4-120.1c-7.3-12-16.1-22.9-25.1-33.6   C1725.4-326.4,1731.1-322.5,1737-319z M1618.4-370.8c9.1,2.6,18.2,5,26.8,8.9c31,13.8,57.6,36.8,77.1,64.4   c21,29.8,33.8,64.9,39.9,100.7c3.8,21.1,5.1,42.5,5.2,63.8c0.5,82.1,0.4,164.3,0.3,246.4c-0.1,23.4,0.4,46.9,2.7,70.2   c2.1,22.3,5.8,44.5,12.7,65.8c5.2,16.2,12.5,31.9,22.7,45.6c2.6,3.7,5.7,6.9,8.4,10.5c-33.6-7.7-66.2-21.7-93-43.6   c-23.7-19.3-41.8-45.3-51.4-74.3c-7-20.6-9.9-42.5-9.7-64.2c0-76.6,0.1-153.1,0-229.6c-0.3-41.4-8.1-82.9-24.7-121   c-13.2-30.4-31.6-58.3-53.9-82.7c-27.9-30.6-61.7-55.7-98.3-74.9c-0.9-0.5-1.8-1.2-2.6-1.8C1527-388.3,1573.7-383,1618.4-370.8z    M1424.7-380.9c6.4-0.8,12.8-2.5,19.5-2.4c13.4,4.6,26.1,11,38.6,17.8c29.2,16.1,56.2,36.3,79.4,60.2c25.2,26,45.8,56.5,59.4,90   c15.1,36.7,21.7,76.5,21.2,116.1c0.1,76.5-0.1,153,0.1,229.5c0.4,23.9,4.5,47.9,13.1,70.2c3.6,10,8.7,19.3,13.7,28.7   c-18.2-3.6-36-10.2-51.4-20.6c-23-15.1-40-38-50.8-63c-8.7-19.6-14.1-40.5-17.6-61.6c-4.3-26.2-5.9-52.8-5.9-79.3   c-0.7-15.5-0.7-31-0.9-46.5c-1-26.4-0.8-52.9-1.7-79.3c-1.5-37.3-11.1-74.2-28.7-107.1c-14.1-26.7-33.3-50.7-55.3-71.3   c-25.9-24.3-55.9-44.1-87.7-59.8c-3.6-1.9-7.7-3.1-10.8-5.7C1380.4-371.9,1402.4-377.2,1424.7-380.9z M1259.3-320.6   c31.3,14.6,62.2,31.5,87.8,55c20.2,18.4,35.4,42.3,43.1,68.6c-7.5,0-14.8-2-22.1-3.5c-34.6-8.2-67.4-23.5-96.3-44.2   c-19.5-14.3-37.4-31.4-50-52.2C1234.1-305.1,1246.4-313.2,1259.3-320.6z M1207.5-286.3c18.6,28.6,44.8,51.5,73.9,68.9   c31.2,18.5,65.7,32,101.6,37.5c3.8,0.8,8.1,0.1,11.7,1.5c2.1,7,2.8,14.4,3.9,21.7c0.9,6.5,1.8,13,1.9,19.6   c-42-0.4-84-9.1-122.9-25.2c-44.9-18.6-86.2-48.4-113.3-89.2C1178.1-263.8,1192.4-275.6,1207.5-286.3z M1129.4-218.1   c6.9-7.5,14.2-14.7,21.7-21.7c11.7,16.6,25.3,31.8,40.6,45.2c-14.7,0.2-29.5-2.4-43.2-7.9c-7.1-3.1-14.1-6.6-20-11.7   C1126.6-215.3,1128.5-217,1129.4-218.1z M1115.8-202c22.4,18.3,52.3,26.1,81,24.5c4.8-0.2,9.6-1.4,14.4-1.5c4.8,2.6,9,6.2,13.7,8.9   c7.4,4.9,15.5,8.9,23.1,13.5c-20.6,8.2-43.2,10.3-65.2,9.4c-29.6-1.8-59.9-10.6-82.5-30.4C1104.3-186.4,1110-194.3,1115.8-202z    M960.9-49.2c3.8-5.6,9.5-9.7,14.6-14.1c5.5-4.2,11.2-8.5,17.4-11.3c4.2-0.4,8.3,1.4,12.4,2.3c21.8,5.2,43.6,10.8,65.4,15.9   c0.1,1.7,0.1,3.4,0.2,5.1l-116.6,9.9C956.4-44.1,958.6-46.7,960.9-49.2z M1070.8-33.3c-12.7,5.3-25.1,11.4-37.9,16.3   C1003.4-3.7,973.6,9,944,22.1c-2.2,0.9-4.5,1.9-6.7,2.9l-14.1-1.5c1.8-6.7,4.1-13.3,6.4-19.9c3.8-10,8.4-19.8,13.8-29.1l127.5-10.8   C1070.9-35.3,1070.8-34.3,1070.8-33.3z M922.9-23.7c-7.4,14.4-13,29.7-17.1,45.3L677.6-3L922.9-23.7z M1070.2,39.3l-97.9-10.5   c32.7-14.4,65.4-28.7,98.2-42.9c0,7.6,0,15.1,0,22.7L1070.2,39.3z M1078.5-72.1c-45.7-11.2-91.5-22.4-137.3-33.7   c-12.2-3.1-24.6-5.8-36.8-9.3c14-9.8,29.4-17.3,45.3-23.5c29.6-11.3,62.7-15.6,93.7-7.1c28.6,7.7,53.3,25.9,72.3,48.3   c6.9,8.1,13.3,16.6,18.9,25.7c-15.9,0.1-31.8,0-47.7,0.1C1084.1-71.6,1081.3-71.5,1078.5-72.1z M1357.6,48.7   c-6.5,23.8-15.3,47-27.8,68.2c-15.8,27.2-37.4,51-62.9,69.5c-15.5,11.5-32.5,20.8-49.6,29.6c-3.6,1.6-6.1,5.2-5.7,9.1   c0,28-0.1,56.1,0,84.2c0.1,14.1,6.8,27.8,17.7,36.7c3,2.5,6.3,4.6,9.6,6.7c-8.2,15.7-20.5,29.2-35.3,38.7   c-21.8,14-48.4,19.7-74.2,18.5c-1.8,0.2-3-1.3-4.2-2.4c-12.8-12.8-21.1-29.4-26.6-46.5c-8.1-25.6-10.9-52.6-10.3-79.4   c-0.1-111.8,0-223.7-0.1-335.5c24.6-0.5,49.3,0,74-0.3c22.1,0,44.2-0.1,66.3,0c22.1-0.1,44.1-0.1,66.2,0c24.8-0.1,49.7-0.2,74.5,0   C1369.6-19.6,1366.1,15.1,1357.6,48.7z M1155.2-71.7c-16.9-28.4-38.4-54.7-66.1-73.2c1.1-5.3,2.4-10.5,4-15.7   c11.6,8.4,24.1,15.7,37.5,20.4c22.7,8.3,47,11.4,71,10.3c22.6-1.2,45.1-5.9,65.5-15.8c1.3-0.6,2.8-1.3,4.2-0.5   c41.2,17,85.6,26,130.2,26.4c1.2,16,0.8,32.1,0.9,48.1C1320-71.7,1237.6-71.6,1155.2-71.7z M1417.6-142.7   c-2.9-35.2-10.5-71-29.8-101.1c-18.7-29.8-47.1-51.9-77-69.5c-10.5-6.4-21.5-11.7-32.3-17.6c17-9.6,35-17.3,53.1-24.5   c2.4-1.3,4.9,0.3,7.2,1.2c33.4,13.9,65.2,32.1,93.1,55.3c24,20,45.1,43.7,60.9,70.7c19.6,33.3,30.2,71.6,31.3,110.1   c1,47.2,1.9,94.3,2.9,141.5c1,32.3,4.4,64.7,12.9,96c-29.3-6.3-55.3-24.3-74.1-47.4c-22.8-28.1-35.9-63-42-98.4   c-2.1-12.3-3.5-24.8-4-37.2C1419.8-90,1420-116.4,1417.6-142.7z M1651.1,610.4c21.4,7.3,42.4,15.4,63.6,22.9   c5.2,2.1,10.8,3.4,15.7,6.2c-9.3,16.3-22.7,30.2-38,41c-7.7,5.3-15.8,10.3-24.5,13.8c-14.3-21.4-19.6-47.2-22.9-72.3   C1643.9,617.1,1648.7,614,1651.1,610.4z M1859.5,629.7V629c-5.6-1-10.8-3.6-16.1-5.7c-31.7-13.9-61-33-87.4-55.2   c-48.8-41-87.6-93.9-112.4-152.7c-19.8-46.5-31-96.3-35.4-146.5c0.1-5.2-4.8-9.8-10-8.9c-4.7,0.5-8.2,5.2-7.5,9.8   c6.3,75.7,28.6,150.7,69.6,215c14.7,23.3,32.1,44.9,50.9,65.1c-46.6,0.1-93.3-4.1-138.9-13.7c-37.4-8.2-74.6-19.4-108.2-38.3   c0.2-9.8,0.6-20.2-4.3-29.2c-7.8-16-25.4-24.3-42.2-27.3c-5.3-0.8-12.2-3.2-16.2,1.7c-4.4,4.7-1.4,13.4,5,14.2   c9.1,1.2,18.3,3,26.3,7.7c7.4,4.2,13.5,11.7,13.9,20.5c0,30.3,0,60.7,0,91.1c-0.4,5.7,4.9,9,8.4,12.6   c25.3,23.8,56.5,40.9,89.7,50.9c21.9,6.7,44.7,10.4,67.5,11.8c2.7,0.2,5.7-0.2,7.7-2.2c3.6-3.7,6.3-8.1,9.9-11.8   c3.9,21.8,9.9,43.7,21.6,62.8c-16.3,6.1-33.7,8.9-51,10.4c-40.3,2.9-80.9-4.5-118.4-19.2c-29.2-11.4-57.2-26.3-81.8-45.8   c-25.1-19.7-46.5-44.3-62.6-71.9c-16.3-27.8-27.4-58.4-34.8-89.7c-9-38.6-12.6-78.2-13.1-117.7c73.9,0,147.7-0.1,221.5,0   c12.3,14.5,26,27.7,41.2,39.1c3.9,2.7,7.6,5.8,11.8,8c5.5,2.6,12.5-2.4,11.9-8.5c0-4.4-4-7-7.2-9.1c-27.3-18.9-49.7-44.1-67.6-71.9   c-19.5-30.1-33.9-63.3-45.1-97.3c-16.8-51.3-26.4-104.6-31.9-158.2c-1.1-12.9-2.7-25.8-2.9-38.8c12,28.9,29.5,56,53.8,76   c20.1,16.8,44.7,28.3,70.6,32.4c10.7,28.7,26.9,56.1,50.8,75.7c22.7,18.9,51.3,29.9,80.4,33.6c2.9,0.6,6.6,0.3,8.5,3.2   c20.5,24.6,47.5,43.2,77,55.9c20.7,9,42.7,15.3,64.9,19.3c8.1,1.5,16.3,2.9,24.6,1.9c2.7-0.2,5.2-1.5,7.5-2.9   c-0.1-1.5-0.2-3.1,0-4.6c-5.9-7.8-15-11.9-22.4-18c-12.4-10-22-23.2-28.9-37.4c-8.5-17.4-13.5-36.3-16.8-55.3   c-7.5-43.3-6-87.3-6.1-131c0-21.5,0-42.9,0-64.4c-0.2-2,0.7-3.8,1.8-5.4c15.9-23.7,28.4-49.5,38.3-76.2c13.1-37.5,20.7-77,22-116.7   c0.6-13.4,0.1-26.9-0.5-40.3c47.7,56.6,80.4,126.4,90.3,200.1c2.8,19.3,3.6,38.9,3.5,58.4c-0.1,199,0.1,398-0.1,597   c-23.1,0.2-46.3,0-69.4,0.1C1867.2,631.7,1863.4,630.4,1859.5,629.7z M1868.4,1070.2c-36.6,0-73.3,0.2-109.9-0.1   c7.7-24.4,25.4-44.1,44.3-60.6c2.1-1.6,4.2-4.4,7.1-3.3c27.6,7.1,51.2,25,69.7,46.2C1875.5,1058.1,1871.9,1064.1,1868.4,1070.2z    M2017.1,701.3c9,11.4,16.9,23.8,23.6,36.7c2.3,4.4,4.7,8.7,6.2,13.5c-24.3,11.1-45.3,28.8-61.1,50.3   c-18.1,24.2-30.2,52.3-38.6,81.2c-12.3,43.1-17,88.2-16.4,133c-14.7,4.9-28.4,13-39.8,23.6c-16.2-17.9-35.4-33.4-57.6-43   c-2.7-1.1-5.4-2.3-8-3.5c9.8-7.7,21.2-13.2,31.6-20.3c10.6-7.7,15.1-20.7,17.5-33c3.5-17.6,3.5-35.6,3.4-53.5   c-0.1-33.4-3.5-66.5-5.7-99.7c-2.5-39.6-3.9-79.4-3.3-119.1c0.2-6.3,0.3-12.5,0.7-18.7c23.7,0,47.4,0.1,71.2,0.2   c3,0,6.2-0.3,9.2,0.7C1976.8,659.9,1999.5,678.9,2017.1,701.3z M2103.2,541.8c-28.9,0.7-56.8,11-81.5,25.5   c-23.2,13.6-44,31-63,49.9c-0.4-40.6-0.1-81.2-0.2-121.8c0-156.3,0-312.7,0-469c0-8.3-0.5-16.5-0.7-24.7   c38.7,10.6,78.3,17.9,118.3,22.1c3.3,50.3,8.2,100.5,17,150.1c13,74.7,33.6,148.3,64.1,217.9c21.9,50.1,49.1,98,81.7,142   c2,2.6,3.9,5.2,5.8,7.9C2197.5,541.9,2150.4,541.7,2103.2,541.8z M2181.3,403.3c-30.5-64.9-51.8-133.9-66-204.2   c-11.4-57.2-18.6-115.3-21.5-173.5c23.9,1.8,47.8,2.4,71.8,2c50.8-1.7,101.8-9.3,149.8-26.3c9.8-3.3,19.2-7.7,29.2-10.5   c19.9-5.6,40.6-8.5,61.1-9.2c16.2-0.6,32.4,0.7,48.6,1.9c69.6,5.8,139.2,20.8,202.7,50.7c42.5,19.9,81.6,46.9,114.7,80.2   c24.2,24.2,45.3,51.9,59.3,83.3c17.1,38,24.8,79.7,26.9,121.2c-52.8,0-105.5,0-158.3,0c-28.6-0.1-57.1,3.2-85.2,8.1   c-53.2,9.5-105.1,26.3-153.5,50.4c-46.3,23.1-89.2,53.2-126,89.6c-9.4,9.3-18.4,19-27.1,28.9c-12.3,14.7-24.1,29.8-34.8,45.8   c-2.2-0.1-4.3-0.1-6.4-0.1C2232.8,499.1,2204.3,452.4,2181.3,403.3z M2372.6,1136.2c-33.1,0.6-66.2,0.1-99.3,0.2   c1.4-27.8,11.9-54.6,27.1-77.6c1.1-2.3,4-1.2,5.9-0.7c26.7,8.2,49.7,26.2,66,48.7c1.6,2.4,3.6,4.5,4.6,7.2   C2375.3,1121.4,2373.4,1128.7,2372.6,1136.2z M2500.9,888.2c-3.8,9.4-6,19.3-8.4,29.2c-4.7,22.1-6.1,44.8-8.9,67.3   c-4.2,3.8-9.6,6.1-14.1,9.5c-29.6,19.9-56,45.4-74,76.4c-4.4,7.2-7.9,15-11.5,22.6c-4.5-4.8-8.4-10.1-13.1-14.7   c-16.2-16.3-36.1-28.9-57.8-36.3c12.1-14.7,26.1-27.6,40.4-40.2c6.8-6.1,13.8-12,20-18.7c5.5-6.1,10.8-13.4,10.7-21.9   c0-13.6-0.2-27.1,0-40.7c-0.2-17.1-0.1-34.2,0-51.3c28.3-0.1,56.7,0,85,0c13.6-0.2,27.2,0.6,40.8-1   C2507.3,875.2,2503.3,881.3,2500.9,888.2z M2502.4,851.9c-14,0.9-28.1,0.4-42.1,0.5c-63.8-0.1-127.5,0.2-191.3-0.1   c11.2-11.4,23.7-21.4,36.2-31.2c27.8-21.5,58.2-39.8,90.5-53.9c36.7-16.2,76-26.5,115.9-30.6c23.4-2.5,46.9-1.9,70.4-2   c30.3,0,60.7,0,91,0c20.7,0.2,41.5-0.5,62-3.2c24.4-3.1,48.5-8.9,71.6-17.3c-10.8,10.3-22.7,19.5-34.5,28.7   c-31,23.6-64.5,43.8-99.6,60.8C2619.2,829.2,2561.7,848,2502.4,851.9z M2574,1160.4c-1.4,5.8-1.8,11.9-2.8,17.8   c-36,0.1-72.1,0-108.1,0c2.5-36,19.1-69.9,42.8-96.8c15.9,4.8,30.4,13.4,43.6,23.4c11.8,8.8,22.6,19,32.2,30.2   C2578.7,1143.3,2575.7,1151.7,2574,1160.4z M2755.1,837.6c-14.4,6.7-27.9,15.9-38,28.3c-9.7,11.7-15.8,25.8-20,40.3   c-5.2,18.1-7.8,36.7-10.1,55.3c-3.4,28.5-6.2,57.2-9.5,85.7c-31.4,12.4-60.8,32-80.4,59.9c-2.7,3.3-4.4,7.4-7.2,10.6   c-5.1-4.5-9.4-9.7-14.5-14.1c-16.5-14.9-35.2-27.5-55.9-35.8c4.5-5.6,10.3-10.1,15.5-15c8.6-7.8,17.6-15.3,26-23.4   c5.2-5.2,10.3-10.7,13.1-17.6c1.9-4.7,1.3-9.9,1.4-14.8c0-46.4,0-92.8,0-139.2c37.1-9.3,73-23.1,107.4-39.9   c32-15.6,62.7-34,91.5-55c9-6.5,17.5-13.5,26.4-20.3c6.3,25.1,9.9,50.8,13.1,76.4C2793.9,823.7,2773.8,828.8,2755.1,837.6z    M2895.9,611.2c-11.4,17.6-24,34.5-37.6,50.5c-10.6,11.2-23.6,20-37.3,27c-35.6,18.1-75.6,25.7-115.1,28.1   c-28.4,0.9-56.8,0.3-85.2,0.5c-25.4,0-50.8-0.2-76.2,0.1c-45.9,0.7-91.6,9.3-134.5,25.4c-64.6,24-122.3,64.5-170.3,113.7   c-13.1,13.6-25.7,27.8-37.4,42.7c-5.9,7.2-11,15-16.9,22.1c-0.2-24.3,1.8-48.5,4-72.7c2-20.1,4.6-40.2,8-60.1   c0.7-4.2,3.3-7.7,5.3-11.4c25.6-44.1,58-84.9,98.4-116.3c45.5-35.8,102.1-58.4,160.2-60.4c46.5-0.3,93-1,139.5-1.1   c54.5-1,108.9-0.8,163.3-1.9c24-0.7,48.1-1.9,72-5.3c22-3.1,44.1-7.9,64.8-16.2c7.1-2.6,13.6-6.4,20.6-9.5   C2914.1,581.9,2905.2,596.7,2895.9,611.2z M2942.7,517.5c-4.1,13.4-14.7,23.7-26.1,31.3c-16,10.5-34.6,16.4-53.1,20.8   c-48.5,11-98.4,10.3-147.8,11c-79.9,0.8-159.7,1.7-239.5,2.1c-23-0.2-46.1,2.1-68.5,7.4c-52.8,12.2-101.3,40.1-140.7,77   c-18.9,17.5-35.8,37-51,57.8c-2.2,3.1-4.2,6.3-6.9,9.1c5.6-24.8,13.6-49,22.4-72.8c19.3-50.9,45.7-99.3,79.9-141.7   c3.5-4.1,6.5-8.8,11.2-11.6c23.3-15.5,49.4-26.6,76.3-34.4c30.2-8.6,61.7-12.7,93.1-12.6c107.9-0.1,215.7-0.8,323.6-0.5   c13.5,0,27,0.4,40.5,0.4c21.3-0.6,42.4-4.8,62.5-11.8c16.8-5.8,32.6-14.5,46.4-25.9C2961.4,455.3,2953.6,487,2942.7,517.5z    M2967.6,386.6c-0.2,2.8,0.1,5.8-1.5,8.2c-9.1,14.6-23.9,24.8-39.2,32.1c-22.8,10.5-47.8,16-72.9,16.7c-56.1-1-112.1-0.8-168.2-0.5   c-55.7,0.1-111.5,0.4-167.2,0.4c-12.5,0-25.1-0.1-37.6,0.1c-33.3,0.8-66.6,6.4-98.3,16.7c-8,2.4-15.6,5.8-23.5,8.3   c7.4-7.5,15.7-14.1,23.9-20.8c42.1-33.8,90.1-60.1,140.9-78.6c52.2-18.9,107.3-30.4,162.8-32.8c76.9-0.2,153.7-0.1,230.6-0.1   c10.2-0.1,20.7,0.8,30.6-2.3c6-1.6,11.4-4.7,16.6-7.8C2967.3,346.2,2968.1,366.4,2967.6,386.6z"
   id="path181" />
	<polygon
   class="st27"
   points="1071,-36.3 1070.2,39.3 677.6,-3  "
   id="polygon183" />
	<g
   class="st28"
   id="g189">
		<polygon
   class="st29"
   points="521,-4.8 1086.2,-52.6 1085,56   "
   id="polygon185" />
		<polygon
   class="st29"
   points="1071,-36.3 677.6,-3 1070.2,39.3   "
   id="polygon187" />
	</g>
	<g
   class="st28"
   id="g207">
		<path
   class="st30"
   d="M971.7-29.5h3.9C973.2-29.6,971.7-29.5,971.7-29.5z"
   id="path191" />
		<path
   class="st30"
   d="M1032.9,1.5c-6.5-33.7-42.3-31-42.3-31h-15c9.4,0.4,33.2,4.2,38.4,31c8.4,43.7,33.8,37.8,33.8,37.8h12.6    C1052.3,38.1,1038.7,31.3,1032.9,1.5z"
   id="path193" />
		<path
   class="st30"
   d="M1060.4,39.3c3.8,0.6,6.3,0,6.3,0H1060.4z"
   id="path195" />
		<path
   class="st30"
   d="M955,26.9h-4.4C953.1,27.3,955,26.9,955,26.9z"
   id="path197" />
		<path
   class="st30"
   d="M931.1-1.1C926.5-26,901.2-24,901.2-24h-10.6c6.7,0.3,23.5,3.1,27.1,22.9c6,32.3,23.9,27.9,23.9,27.9h8.9    C944.8,25.9,935.2,21,931.1-1.1z"
   id="path199" />
		<path
   class="st30"
   d="M887.8-24h2.8C888.9-24.1,887.8-24,887.8-24z"
   id="path201" />
		<path
   class="st30"
   d="M817.7-1.2C815.4-17.2,805-17.1,805-17.1l-10,1.5c0,0,10.4-0.6,12.7,15.3c2.7,19.1,14.5,16.7,14.5,16.7    l8-1.3C827.7,15.4,819.9,14.8,817.7-1.2z"
   id="path203" />
		<path
   class="st30"
   d="M830.9,15l-0.8,0.1C830.6,15.1,830.9,15,830.9,15z"
   id="path205" />
	</g>
</g>
<g
   aria-label="A LOAN UNICORN"
   transform="matrix(4.2018524,0,0,7.2143235,-6896.3436,-9294.8793)"
   id="text12537"
   style="font-stretch:semi-expanded;font-size:48px;line-height:25px;font-family:Ravie;-inkscape-font-specification:'Ravie, Semi-Expanded';white-space:pre;shape-inside:url(#rect12539);opacity:1;fill:#f098b6"
   inkscape:transform-center-x="74.842814"
   inkscape:transform-center-y="429.00539"><path
     d="m 1892.5449,1453.4805 q -0.75,1.3828 -2.3437,4.1718 -3.8438,-0.1875 -5.3672,-0.1875 -5.2735,0 -11.5313,1.0547 0.586,-4.0312 0.586,-7.9687 0,-4.336 -0.7266,-6.7735 -3.8672,-0.375 -12.0469,-1.289 -0.7734,2.7422 -1.7812,5.5078 -1.1485,3.1641 -2.4844,5.3906 1.3828,0.3281 7.1484,0.6094 -0.4453,3.0234 -0.4453,5.5312 -5.3203,-1.7812 -9.9375,-2.9296 -3.0703,-0.7735 -7.875,-1.6407 0.6563,-0.8437 1.5938,-2.1562 l 1.2422,-1.711 q 0.8437,0.3516 2.6953,1.1954 3.539,-4.875 6.375,-14.1563 3,-9.7266 3.2344,-15.9844 3.4921,-0.4218 6.4687,-1.0547 3.0703,-0.6796 6.6328,-1.875 3.4688,5.6485 7.6172,17.0391 1.8984,5.5078 5.0391,14.5781 0.4453,1.2188 2.6015,1.8985 1.6641,0.375 3.3047,0.75 z m -17.9062,-20.9766 q 0,-3.2109 -4.3594,-3.2109 -3.1641,0 -5.7188,1.6875 -2.6718,1.7578 -2.6718,4.0547 0,3.0468 5.2265,3.0468 7.5235,0 7.5235,-5.5781 z"
     id="path957" /><path
     d="m 1947.834,1445.0898 q 0,3.5391 -1.0781,6.9141 -0.7735,2.4375 -2.1329,4.7344 -0.75,1.1719 -1.4765,2.3672 -0.1875,0.3047 -0.6328,0.2343 -8.6485,-1.3125 -16.4532,-1.3125 -10.3125,0 -12.3984,2.836 l -1.0547,-5.9063 q 1.2656,-0.8437 3.2578,-0.8437 1.0078,0 2.3203,0.2812 -3.2343,-8.0859 -3.2343,-22.2656 0,-1.0547 0.047,-3.2109 0.07,-2.1797 0.07,-3.3282 0,-1.9921 -2.1329,-2.3906 -0.7734,-0.094 -2.3906,-0.3984 -0.6328,-0.1641 -0.6328,-2.25 0,-0.5391 0.094,-1.0078 0.4453,0.2109 21.0937,2.1093 -1.9922,4.0547 -3.6328,10.5469 -1.7578,6.8672 -1.7578,11.2969 0,10.6172 8.1094,10.6172 5.8828,0 8.8593,-2.2266 2.1797,-1.6172 2.1797,-3.6328 0,-1.0547 -0.5156,-1.0547 -0.1172,0 -0.2344,0.094 -3.5859,2.4843 -7.3594,2.4843 -3.4453,0 -5.5078,-2.3437 -0.914,-1.0313 -0.914,-2.2031 0,-1.9219 2.2265,-3.75 2.1563,-1.8047 5.6485,-2.8828 2.7656,-0.8672 4.5468,-0.8672 5.086,0 5.086,7.3593 z"
     id="path959" /><path
     d="m 1987.3496,1434.1914 q 0,4.3828 -2.25,10.3125 -2.6016,6.8203 -6.5156,11.1094 -5.3438,5.8359 -12.2578,5.8359 -6.3516,0 -11.1563,-5.5547 -4.9687,-5.7656 -4.9687,-13.8984 0,-7.7578 5.1328,-13.4531 5.6484,-6.2578 14.6484,-6.2578 17.3672,0 17.3672,11.9062 z m -6.375,6.5156 q 0,-3.2812 -3.7031,-5.5312 -3.6094,-2.25 -8.6953,-2.25 -4.5938,0 -8.9532,2.5781 -4.5703,2.6953 -4.5703,5.9297 0,3.7734 4.2422,6.2578 3.6797,2.1328 7.8516,2.1328 5.25,0 9.5859,-2.9765 4.2422,-2.8829 4.2422,-6.1407 z"
     id="path961" /><path
     d="m 2033.6152,1453.4805 q -0.75,1.3828 -2.3437,4.1718 -3.8438,-0.1875 -5.3672,-0.1875 -5.2734,0 -11.5313,1.0547 0.586,-4.0312 0.586,-7.9687 0,-4.336 -0.7266,-6.7735 -3.8672,-0.375 -12.0469,-1.289 -0.7734,2.7422 -1.7812,5.5078 -1.1484,3.1641 -2.4844,5.3906 1.3828,0.3281 7.1485,0.6094 -0.4454,3.0234 -0.4454,5.5312 -5.3203,-1.7812 -9.9375,-2.9296 -3.0703,-0.7735 -7.875,-1.6407 0.6563,-0.8437 1.5938,-2.1562 l 1.2422,-1.711 q 0.8437,0.3516 2.6953,1.1954 3.5391,-4.875 6.375,-14.1563 3,-9.7266 3.2344,-15.9844 3.4922,-0.4218 6.4687,-1.0547 3.0703,-0.6796 6.6328,-1.875 3.4688,5.6485 7.6172,17.0391 1.8985,5.5078 5.0391,14.5781 0.4453,1.2188 2.6015,1.8985 1.6641,0.375 3.3047,0.75 z m -17.9062,-20.9766 q 0,-3.2109 -4.3594,-3.2109 -3.1641,0 -5.7187,1.6875 -2.6719,1.7578 -2.6719,4.0547 0,3.0468 5.2265,3.0468 7.5235,0 7.5235,-5.5781 z"
     id="path963" /><path
     d="m 2071.209,1460.2539 q -0.1875,0.5625 -0.8672,2.3906 -1.0313,-0.1875 -7.4063,-1.875 -5.9296,-1.5703 -6.7031,-1.8281 3.0703,-6.6797 3.0703,-15.8672 0,-3.7969 -0.9609,-6.4219 -0.9375,-2.625 -2.3906,-2.625 -1.7578,0 -4.1719,3.1641 -2.625,3.4219 -3.5625,7.7344 0,3.539 2.3906,14.0625 -5.039,-2.1094 -10.4062,-2.1094 -4.1016,0 -5.5313,1.5 l -0.2344,-5.7656 q 0.8672,-0.4688 2.2032,-0.4688 1.6406,0 3.2578,0.7032 -2.9531,-7.9219 -2.9531,-21.2579 0,-0.9375 0.094,-2.7421 0.094,-1.8047 0.094,-2.6719 0,-1.5469 -1.8282,-1.9688 -0.7968,-0.1406 -2.6484,-0.4922 -0.5625,-0.1171 -0.5625,-2.2031 0,-0.4219 0.1406,-1.0078 2.2266,0.3984 19.1016,1.7344 -3.8906,5.3437 -3.8906,13.8047 0,1.125 0.094,1.875 1.4063,-5.3907 4.8281,-9.7735 2.7657,-3.539 6.3282,-5.789 3,-1.8985 4.7812,-1.8985 3.0703,0 4.6641,3.9375 1.4297,3.5391 1.4297,9.5391 0,3.7734 -1.2891,11.1562 -1.2891,7.3594 -1.2891,11.086 0,1.6406 0.3282,2.5781 0.914,0.3984 3.8906,1.5 z"
     id="path965" /><path
     d="m 2132.2168,1422.8945 q 0,1.2188 -0.1875,2.3672 -0.6094,-0.023 -1.7813,-0.2109 -1.0781,-0.1875 -1.4765,-0.1875 -0.9375,0 -0.961,0.7734 -0.539,11.3672 -0.5625,11.6719 -0.4687,7.1016 -1.5703,13.2422 1.8047,-1.0547 3.7969,-1.0547 1.2188,0 2.2031,0.3281 l 0.3516,4.5703 q -0.2109,0 -0.6563,-0.023 -0.4218,-0.023 -0.6328,-0.023 -3.539,0 -8.2734,1.6406 -4.2891,1.4765 -7.1953,3.3984 -0.4922,0.3281 -0.7969,0.2578 -0.2578,-0.07 -0.2109,-0.3515 1.3828,-7.2188 1.3828,-9.6094 -3.4922,4.7109 -8.1328,7.0547 -3.6328,1.8281 -6.9375,1.8281 -3.7969,0 -6.0703,-2.2734 -2.4141,-2.3907 -2.4141,-6.6563 0,-6.8203 4.3359,-13.664 2.8125,-4.4532 6.7032,-7.9454 -4.8516,0.094 -9.5157,0.5391 -0.3047,0 -0.2343,-0.1875 1.289,-2.5547 1.7343,-3.8437 0.07,-0.211 0.3282,-0.1875 5.9765,0.2812 9.7968,0.2812 3.6797,0 8.5078,-0.1406 -3.9843,5.3672 -6.6328,11.5547 -2.7422,6.375 -2.7422,10.6172 0,2.25 0.9844,3.7031 0.9844,1.4297 2.6719,1.4297 2.5078,0 5.1094,-4.6407 2.7656,-4.8984 4.2422,-12.7265 1.2421,-6.6094 1.2421,-13.0078 0,-0.3985 -0.023,-0.9844 -0.023,-0.5859 -0.023,-0.6563 0,-0.4687 0.6328,-0.3281 4.5,1.2188 13.0078,3.4453 z"
     id="path967" /><path
     d="m 2171.0996,1460.2539 q -0.1875,0.5625 -0.8672,2.3906 -1.0312,-0.1875 -7.4062,-1.875 -5.9297,-1.5703 -6.7032,-1.8281 3.0704,-6.6797 3.0704,-15.8672 0,-3.7969 -0.961,-6.4219 -0.9375,-2.625 -2.3906,-2.625 -1.7578,0 -4.1719,3.1641 -2.625,3.4219 -3.5625,7.7344 0,3.539 2.3906,14.0625 -5.039,-2.1094 -10.4062,-2.1094 -4.1016,0 -5.5313,1.5 l -0.2343,-5.7656 q 0.8672,-0.4688 2.2031,-0.4688 1.6406,0 3.2578,0.7032 -2.9531,-7.9219 -2.9531,-21.2579 0,-0.9375 0.094,-2.7421 0.094,-1.8047 0.094,-2.6719 0,-1.5469 -1.8281,-1.9688 -0.7969,-0.1406 -2.6485,-0.4922 -0.5625,-0.1171 -0.5625,-2.2031 0,-0.4219 0.1406,-1.0078 2.2266,0.3984 19.1016,1.7344 -3.8906,5.3437 -3.8906,13.8047 0,1.125 0.094,1.875 1.4063,-5.3907 4.8282,-9.7735 2.7656,-3.539 6.3281,-5.789 3,-1.8985 4.7812,-1.8985 3.0703,0 4.6641,3.9375 1.4297,3.5391 1.4297,9.5391 0,3.7734 -1.2891,11.1562 -1.289,7.3594 -1.289,11.086 0,1.6406 0.3281,2.5781 0.914,0.3984 3.8906,1.5 z"
     id="path969" /><path
     d="m 2197.1621,1457.9805 q 0,0.3047 -0.3281,0.3047 -0.2578,0 -4.1953,-0.3985 -3.9141,-0.375 -6.5157,-0.375 -4.2187,0 -14.8359,1.7344 0,-0.8672 0.6797,-4.2422 0.023,-0.047 2.0156,-0.4219 2.1563,-0.3984 2.9766,-1.289 0.6094,-0.6563 1.5469,-7.1953 1.0546,-7.1016 1.0546,-12.4454 0,-4.6875 -0.9609,-6.4687 -0.2109,-0.4922 -0.9609,-0.4922 -0.5391,0 -1.4297,0.3047 -0.8906,0.2812 -1.0313,0.2812 -0.3984,0 -1.3828,-1.4296 -0.9609,-1.4297 -0.9609,-2.1329 0,-0.3281 0.8672,-0.3281 3.1406,0 10.1953,-0.7734 8.0859,-0.8672 11.8828,-1.875 0.1406,-0.1406 0.1406,1.1953 0,1.2187 -0.4219,1.4062 -3.1171,1.2657 -4.1484,5.2969 -0.5625,2.2969 -1.1016,10.6875 -0.094,1.5235 -0.094,2.6719 0,8.1094 1.875,10.1719 0.5391,0.5859 1.5,0.5859 0.6797,0 1.7812,-0.3516 1.125,-0.375 1.2891,-0.375 0.2109,0 0.2813,0.6797 0.2812,3.1641 0.2812,5.2735 z"
     id="path971" /><path
     d="m 2232.623,1432.4102 q 0,2.9296 -1.664,4.125 -1.6641,1.1953 -5.8594,1.1953 -4.8281,0 -7.8281,-1.3594 -2.8828,-1.3125 -2.8828,-3.2813 0,-1.0312 0.8203,-2.5078 1.4297,-2.6015 4.7578,-3.3047 1.875,-0.1875 3.7266,-0.3984 0.2578,-0.1406 0.2578,-0.3281 0,-0.9141 -2.2969,-2.2031 -2.5781,-1.4532 -5.3438,-1.4532 -3.914,0 -5.9296,2.9766 -1.7579,2.5547 -1.7579,6.7266 0,2.0625 0.3985,4.3125 1.6406,9.7265 3.8906,13.4296 1.8047,3 4.7344,3 1.0781,0 2.1797,-0.1875 3.8906,-0.6796 6.0937,-3 1.0781,-1.125 3.211,-4.9218 0.2812,-0.1875 0.2812,-0.047 0.1406,1.1484 0.1406,1.9687 0,4.1485 -1.7812,7.336 -2.3438,4.1953 -7.1485,5.039 -3.8437,0.6797 -6.75,0.6797 -15.6562,0 -15.6562,-20.3203 0,-9.8437 5.0156,-14.8359 4.5235,-4.5 12.5156,-4.5 9.0469,0 13.4766,4.1015 3.3984,3.1407 3.3984,7.7579 z"
     id="path973" /><path
     d="m 2270.7324,1434.1914 q 0,4.3828 -2.25,10.3125 -2.6015,6.8203 -6.5156,11.1094 -5.3438,5.8359 -12.2578,5.8359 -6.3516,0 -11.1563,-5.5547 -4.9687,-5.7656 -4.9687,-13.8984 0,-7.7578 5.1328,-13.4531 5.6484,-6.2578 14.6484,-6.2578 17.3672,0 17.3672,11.9062 z m -6.375,6.5156 q 0,-3.2812 -3.7031,-5.5312 -3.6094,-2.25 -8.6953,-2.25 -4.5938,0 -8.9531,2.5781 -4.5704,2.6953 -4.5704,5.9297 0,3.7734 4.2422,6.2578 3.6797,2.1328 7.8516,2.1328 5.25,0 9.5859,-2.9765 4.2422,-2.8829 4.2422,-6.1407 z"
     id="path975" /><path
     d="m 2321.6621,1446.8008 q 0,3.0234 -2.2734,6.2578 -3.1875,4.5234 -9.3047,5.6016 -4.1016,0.7265 -6.9141,0.7265 -8.3906,0 -9.3984,-5.3906 -0.3047,-1.6875 -0.5625,-6.2578 -0.1875,-3.2344 -1.0313,-4.8047 -1.1484,-2.2266 -4.3593,-3.75 -0.1875,0.5625 -0.1875,3.2578 0,6.8203 2.4843,15.2109 l -11.0625,0.07 q -7.664,0.07 -7.9453,0.164 -0.023,-0.1172 -0.047,-0.2812 0,-2.6016 0.8204,-2.7422 1.3593,-0.1875 2.7187,-0.375 1.3594,-0.4219 1.4531,-2.0625 0.6094,-8.8125 1.3125,-13.336 1.2657,-7.8984 4.0313,-14.6484 -0.4922,0.094 -1.4063,0.094 -2.4843,0 -3.9375,-1.336 l 1.5,-5.5312 q 4.125,3.2109 8.5313,4.5234 3.7031,1.1016 8.6015,1.1016 2.1094,0 6.8907,-0.3047 4.8047,-0.3281 5.8828,-0.3281 5.1797,0 7.8047,2.4609 2.2265,2.0859 2.2265,5.5078 0,5.1563 -5.4843,8.1563 -4.8047,2.6484 -11.8125,2.6484 -2.2969,0 -4.875,-0.2813 5.25,1.1016 7.3828,2.6485 1.7343,1.289 1.7343,3.2344 0,0.7968 -0.3984,2.7421 -0.375,1.9219 -0.375,3.0235 0,2.8828 3.3516,2.8828 2.6718,0 6.0234,-1.3125 3.2578,-1.2656 3.2578,-2.1328 0,-0.3047 -0.4922,-0.3047 -0.3281,0 -2.3203,0.4687 -1.9922,0.4454 -3.2578,0.4454 -3.1406,0 -3.9609,-2.0391 -0.1172,-0.2578 -0.1172,-0.6328 0,-1.5703 1.9922,-3.4219 2.2031,-2.0625 5.8359,-3.4453 1.7578,-0.6797 3.2109,-0.6797 2.1329,0 3.3985,1.4531 1.0781,1.2188 1.0781,2.7188 z m -13.1016,-12.9141 q 0,-1.9687 -4.1953,-3.7969 -4.1718,-1.8515 -8.7187,-1.8515 -3.7735,0 -6.5625,0.914 -2.7891,0.8907 -2.7891,2.2032 0,2.2734 5.6485,3.914 4.5468,1.3125 8.0625,1.3125 3.4687,0 5.8359,-0.6328 2.7187,-0.75 2.7187,-2.0625 z"
     id="path977" /><path
     d="m 2361.084,1460.2539 q -0.1875,0.5625 -0.8672,2.3906 -1.0313,-0.1875 -7.4063,-1.875 -5.9296,-1.5703 -6.7031,-1.8281 3.0703,-6.6797 3.0703,-15.8672 0,-3.7969 -0.9609,-6.4219 -0.9375,-2.625 -2.3906,-2.625 -1.7578,0 -4.1719,3.1641 -2.625,3.4219 -3.5625,7.7344 0,3.539 2.3906,14.0625 -5.039,-2.1094 -10.4062,-2.1094 -4.1016,0 -5.5313,1.5 l -0.2344,-5.7656 q 0.8672,-0.4688 2.2032,-0.4688 1.6406,0 3.2578,0.7032 -2.9531,-7.9219 -2.9531,-21.2579 0,-0.9375 0.094,-2.7421 0.094,-1.8047 0.094,-2.6719 0,-1.5469 -1.8282,-1.9688 -0.7968,-0.1406 -2.6484,-0.4922 -0.5625,-0.1171 -0.5625,-2.2031 0,-0.4219 0.1406,-1.0078 2.2266,0.3984 19.1016,1.7344 -3.8906,5.3437 -3.8906,13.8047 0,1.125 0.094,1.875 1.4063,-5.3907 4.8281,-9.7735 2.7657,-3.539 6.3282,-5.789 3,-1.8985 4.7812,-1.8985 3.0703,0 4.6641,3.9375 1.4297,3.5391 1.4297,9.5391 0,3.7734 -1.2891,11.1562 -1.2891,7.3594 -1.2891,11.086 0,1.6406 0.3282,2.5781 0.914,0.3984 3.8906,1.5 z"
     id="path979" /></g><script
   id="mesh_polyfill"
   type="text/javascript">
!function(){const t=&quot;http://www.w3.org/2000/svg&quot;,e=&quot;http://www.w3.org/1999/xlink&quot;,s=&quot;http://www.w3.org/1999/xhtml&quot;,r=2;if(document.createElementNS(t,&quot;meshgradient&quot;).x)return;const n=(t,e,s,r)=&gt;{let n=new x(.5*(e.x+s.x),.5*(e.y+s.y)),o=new x(.5*(t.x+e.x),.5*(t.y+e.y)),i=new x(.5*(s.x+r.x),.5*(s.y+r.y)),a=new x(.5*(n.x+o.x),.5*(n.y+o.y)),h=new x(.5*(n.x+i.x),.5*(n.y+i.y)),l=new x(.5*(a.x+h.x),.5*(a.y+h.y));return[[t,o,a,l],[l,h,i,r]]},o=t=&gt;{let e=t[0].distSquared(t[1]),s=t[2].distSquared(t[3]),r=.25*t[0].distSquared(t[2]),n=.25*t[1].distSquared(t[3]),o=e&gt;s?e:s,i=r&gt;n?r:n;return 18*(o&gt;i?o:i)},i=(t,e)=&gt;Math.sqrt(t.distSquared(e)),a=(t,e)=&gt;t.scale(2/3).add(e.scale(1/3)),h=t=&gt;{let e,s,r,n,o,i,a,h=new g;return t.match(/(\w+\(\s*[^)]+\))+/g).forEach(t=&gt;{let l=t.match(/[\w.-]+/g),d=l.shift();switch(d){case&quot;translate&quot;:2===l.length?e=new g(1,0,0,1,l[0],l[1]):(console.error(&quot;mesh.js: translate does not have 2 arguments!&quot;),e=new g(1,0,0,1,0,0)),h=h.append(e);break;case&quot;scale&quot;:1===l.length?s=new g(l[0],0,0,l[0],0,0):2===l.length?s=new g(l[0],0,0,l[1],0,0):(console.error(&quot;mesh.js: scale does not have 1 or 2 arguments!&quot;),s=new g(1,0,0,1,0,0)),h=h.append(s);break;case&quot;rotate&quot;:if(3===l.length&amp;&amp;(e=new g(1,0,0,1,l[1],l[2]),h=h.append(e)),l[0]){r=l[0]*Math.PI/180;let t=Math.cos(r),e=Math.sin(r);Math.abs(t)&lt;1e-16&amp;&amp;(t=0),Math.abs(e)&lt;1e-16&amp;&amp;(e=0),a=new g(t,e,-e,t,0,0),h=h.append(a)}else console.error(&quot;math.js: No argument to rotate transform!&quot;);3===l.length&amp;&amp;(e=new g(1,0,0,1,-l[1],-l[2]),h=h.append(e));break;case&quot;skewX&quot;:l[0]?(r=l[0]*Math.PI/180,n=Math.tan(r),o=new g(1,0,n,1,0,0),h=h.append(o)):console.error(&quot;math.js: No argument to skewX transform!&quot;);break;case&quot;skewY&quot;:l[0]?(r=l[0]*Math.PI/180,n=Math.tan(r),i=new g(1,n,0,1,0,0),h=h.append(i)):console.error(&quot;math.js: No argument to skewY transform!&quot;);break;case&quot;matrix&quot;:6===l.length?h=h.append(new g(...l)):console.error(&quot;math.js: Incorrect number of arguments for matrix!&quot;);break;default:console.error(&quot;mesh.js: Unhandled transform type: &quot;+d)}}),h},l=t=&gt;{let e=[],s=t.split(/[ ,]+/);for(let t=0,r=s.length-1;t&lt;r;t+=2)e.push(new x(parseFloat(s[t]),parseFloat(s[t+1])));return e},d=(t,e)=&gt;{for(let s in e)t.setAttribute(s,e[s])},c=(t,e,s,r,n)=&gt;{let o,i,a=[0,0,0,0];for(let h=0;h&lt;3;++h)e[h]&lt;t[h]&amp;&amp;e[h]&lt;s[h]||t[h]&lt;e[h]&amp;&amp;s[h]&lt;e[h]?a[h]=0:(a[h]=.5*((e[h]-t[h])/r+(s[h]-e[h])/n),o=Math.abs(3*(e[h]-t[h])/r),i=Math.abs(3*(s[h]-e[h])/n),a[h]&gt;o?a[h]=o:a[h]&gt;i&amp;&amp;(a[h]=i));return a},u=[[1,0,0,0,0,0,0,0,0,0,0,0,0,0,0,0],[0,0,0,0,1,0,0,0,0,0,0,0,0,0,0,0],[-3,3,0,0,-2,-1,0,0,0,0,0,0,0,0,0,0],[2,-2,0,0,1,1,0,0,0,0,0,0,0,0,0,0],[0,0,0,0,0,0,0,0,1,0,0,0,0,0,0,0],[0,0,0,0,0,0,0,0,0,0,0,0,1,0,0,0],[0,0,0,0,0,0,0,0,-3,3,0,0,-2,-1,0,0],[0,0,0,0,0,0,0,0,2,-2,0,0,1,1,0,0],[-3,0,3,0,0,0,0,0,-2,0,-1,0,0,0,0,0],[0,0,0,0,-3,0,3,0,0,0,0,0,-2,0,-1,0],[9,-9,-9,9,6,3,-6,-3,6,-6,3,-3,4,2,2,1],[-6,6,6,-6,-3,-3,3,3,-4,4,-2,2,-2,-2,-1,-1],[2,0,-2,0,0,0,0,0,1,0,1,0,0,0,0,0],[0,0,0,0,2,0,-2,0,0,0,0,0,1,0,1,0],[-6,6,6,-6,-4,-2,4,2,-3,3,-3,3,-2,-1,-2,-1],[4,-4,-4,4,2,2,-2,-2,2,-2,2,-2,1,1,1,1]],f=t=&gt;{let e=[];for(let s=0;s&lt;16;++s){e[s]=0;for(let r=0;r&lt;16;++r)e[s]+=u[s][r]*t[r]}return e},p=(t,e,s)=&gt;{const r=e*e,n=s*s,o=e*e*e,i=s*s*s;return t[0]+t[1]*e+t[2]*r+t[3]*o+t[4]*s+t[5]*s*e+t[6]*s*r+t[7]*s*o+t[8]*n+t[9]*n*e+t[10]*n*r+t[11]*n*o+t[12]*i+t[13]*i*e+t[14]*i*r+t[15]*i*o},y=t=&gt;{let e=[],s=[],r=[];for(let s=0;s&lt;4;++s)e[s]=[],e[s][0]=n(t[0][s],t[1][s],t[2][s],t[3][s]),e[s][1]=[],e[s][1].push(...n(...e[s][0][0])),e[s][1].push(...n(...e[s][0][1])),e[s][2]=[],e[s][2].push(...n(...e[s][1][0])),e[s][2].push(...n(...e[s][1][1])),e[s][2].push(...n(...e[s][1][2])),e[s][2].push(...n(...e[s][1][3]));for(let t=0;t&lt;8;++t){s[t]=[];for(let r=0;r&lt;4;++r)s[t][r]=[],s[t][r][0]=n(e[0][2][t][r],e[1][2][t][r],e[2][2][t][r],e[3][2][t][r]),s[t][r][1]=[],s[t][r][1].push(...n(...s[t][r][0][0])),s[t][r][1].push(...n(...s[t][r][0][1])),s[t][r][2]=[],s[t][r][2].push(...n(...s[t][r][1][0])),s[t][r][2].push(...n(...s[t][r][1][1])),s[t][r][2].push(...n(...s[t][r][1][2])),s[t][r][2].push(...n(...s[t][r][1][3]))}for(let t=0;t&lt;8;++t){r[t]=[];for(let e=0;e&lt;8;++e)r[t][e]=[],r[t][e][0]=s[t][0][2][e],r[t][e][1]=s[t][1][2][e],r[t][e][2]=s[t][2][2][e],r[t][e][3]=s[t][3][2][e]}return r};class x{constructor(t,e){this.x=t||0,this.y=e||0}toString(){return`(x=${this.x}, y=${this.y})`}clone(){return new x(this.x,this.y)}add(t){return new x(this.x+t.x,this.y+t.y)}scale(t){return void 0===t.x?new x(this.x*t,this.y*t):new x(this.x*t.x,this.y*t.y)}distSquared(t){let e=this.x-t.x,s=this.y-t.y;return e*e+s*s}transform(t){let e=this.x*t.a+this.y*t.c+t.e,s=this.x*t.b+this.y*t.d+t.f;return new x(e,s)}}class g{constructor(t,e,s,r,n,o){void 0===t?(this.a=1,this.b=0,this.c=0,this.d=1,this.e=0,this.f=0):(this.a=t,this.b=e,this.c=s,this.d=r,this.e=n,this.f=o)}toString(){return`affine: ${this.a} ${this.c} ${this.e} \n       ${this.b} ${this.d} ${this.f}`}append(t){t instanceof g||console.error(&quot;mesh.js: argument to Affine.append is not affine!&quot;);let e=this.a*t.a+this.c*t.b,s=this.b*t.a+this.d*t.b,r=this.a*t.c+this.c*t.d,n=this.b*t.c+this.d*t.d,o=this.a*t.e+this.c*t.f+this.e,i=this.b*t.e+this.d*t.f+this.f;return new g(e,s,r,n,o,i)}}class w{constructor(t,e){this.nodes=t,this.colors=e}paintCurve(t,e){if(o(this.nodes)&gt;r){const s=n(...this.nodes);let r=[[],[]],o=[[],[]];for(let t=0;t&lt;4;++t)r[0][t]=this.colors[0][t],r[1][t]=(this.colors[0][t]+this.colors[1][t])/2,o[0][t]=r[1][t],o[1][t]=this.colors[1][t];let i=new w(s[0],r),a=new w(s[1],o);i.paintCurve(t,e),a.paintCurve(t,e)}else{let s=Math.round(this.nodes[0].x);if(s&gt;=0&amp;&amp;s&lt;e){let r=4*(~~this.nodes[0].y*e+s);t[r]=Math.round(this.colors[0][0]),t[r+1]=Math.round(this.colors[0][1]),t[r+2]=Math.round(this.colors[0][2]),t[r+3]=Math.round(this.colors[0][3])}}}}class m{constructor(t,e){this.nodes=t,this.colors=e}split(){let t=[[],[],[],[]],e=[[],[],[],[]],s=[[[],[]],[[],[]]],r=[[[],[]],[[],[]]];for(let s=0;s&lt;4;++s){const r=n(this.nodes[0][s],this.nodes[1][s],this.nodes[2][s],this.nodes[3][s]);t[0][s]=r[0][0],t[1][s]=r[0][1],t[2][s]=r[0][2],t[3][s]=r[0][3],e[0][s]=r[1][0],e[1][s]=r[1][1],e[2][s]=r[1][2],e[3][s]=r[1][3]}for(let t=0;t&lt;4;++t)s[0][0][t]=this.colors[0][0][t],s[0][1][t]=this.colors[0][1][t],s[1][0][t]=(this.colors[0][0][t]+this.colors[1][0][t])/2,s[1][1][t]=(this.colors[0][1][t]+this.colors[1][1][t])/2,r[0][0][t]=s[1][0][t],r[0][1][t]=s[1][1][t],r[1][0][t]=this.colors[1][0][t],r[1][1][t]=this.colors[1][1][t];return[new m(t,s),new m(e,r)]}paint(t,e){let s,n=!1;for(let t=0;t&lt;4;++t)if((s=o([this.nodes[0][t],this.nodes[1][t],this.nodes[2][t],this.nodes[3][t]]))&gt;r){n=!0;break}if(n){let s=this.split();s[0].paint(t,e),s[1].paint(t,e)}else{new w([...this.nodes[0]],[...this.colors[0]]).paintCurve(t,e)}}}class b{constructor(t){this.readMesh(t),this.type=t.getAttribute(&quot;type&quot;)||&quot;bilinear&quot;}readMesh(t){let e=[[]],s=[[]],r=Number(t.getAttribute(&quot;x&quot;)),n=Number(t.getAttribute(&quot;y&quot;));e[0][0]=new x(r,n);let o=t.children;for(let t=0,r=o.length;t&lt;r;++t){e[3*t+1]=[],e[3*t+2]=[],e[3*t+3]=[],s[t+1]=[];let r=o[t].children;for(let n=0,o=r.length;n&lt;o;++n){let o=r[n].children;for(let r=0,i=o.length;r&lt;i;++r){let i=r;0!==t&amp;&amp;++i;let h,d=o[r].getAttribute(&quot;path&quot;),c=&quot;l&quot;;null!=d&amp;&amp;(c=(h=d.match(/\s*([lLcC])\s*(.*)/))[1]);let u=l(h[2]);switch(c){case&quot;l&quot;:0===i?(e[3*t][3*n+3]=u[0].add(e[3*t][3*n]),e[3*t][3*n+1]=a(e[3*t][3*n],e[3*t][3*n+3]),e[3*t][3*n+2]=a(e[3*t][3*n+3],e[3*t][3*n])):1===i?(e[3*t+3][3*n+3]=u[0].add(e[3*t][3*n+3]),e[3*t+1][3*n+3]=a(e[3*t][3*n+3],e[3*t+3][3*n+3]),e[3*t+2][3*n+3]=a(e[3*t+3][3*n+3],e[3*t][3*n+3])):2===i?(0===n&amp;&amp;(e[3*t+3][3*n+0]=u[0].add(e[3*t+3][3*n+3])),e[3*t+3][3*n+1]=a(e[3*t+3][3*n],e[3*t+3][3*n+3]),e[3*t+3][3*n+2]=a(e[3*t+3][3*n+3],e[3*t+3][3*n])):(e[3*t+1][3*n]=a(e[3*t][3*n],e[3*t+3][3*n]),e[3*t+2][3*n]=a(e[3*t+3][3*n],e[3*t][3*n]));break;case&quot;L&quot;:0===i?(e[3*t][3*n+3]=u[0],e[3*t][3*n+1]=a(e[3*t][3*n],e[3*t][3*n+3]),e[3*t][3*n+2]=a(e[3*t][3*n+3],e[3*t][3*n])):1===i?(e[3*t+3][3*n+3]=u[0],e[3*t+1][3*n+3]=a(e[3*t][3*n+3],e[3*t+3][3*n+3]),e[3*t+2][3*n+3]=a(e[3*t+3][3*n+3],e[3*t][3*n+3])):2===i?(0===n&amp;&amp;(e[3*t+3][3*n+0]=u[0]),e[3*t+3][3*n+1]=a(e[3*t+3][3*n],e[3*t+3][3*n+3]),e[3*t+3][3*n+2]=a(e[3*t+3][3*n+3],e[3*t+3][3*n])):(e[3*t+1][3*n]=a(e[3*t][3*n],e[3*t+3][3*n]),e[3*t+2][3*n]=a(e[3*t+3][3*n],e[3*t][3*n]));break;case&quot;c&quot;:0===i?(e[3*t][3*n+1]=u[0].add(e[3*t][3*n]),e[3*t][3*n+2]=u[1].add(e[3*t][3*n]),e[3*t][3*n+3]=u[2].add(e[3*t][3*n])):1===i?(e[3*t+1][3*n+3]=u[0].add(e[3*t][3*n+3]),e[3*t+2][3*n+3]=u[1].add(e[3*t][3*n+3]),e[3*t+3][3*n+3]=u[2].add(e[3*t][3*n+3])):2===i?(e[3*t+3][3*n+2]=u[0].add(e[3*t+3][3*n+3]),e[3*t+3][3*n+1]=u[1].add(e[3*t+3][3*n+3]),0===n&amp;&amp;(e[3*t+3][3*n+0]=u[2].add(e[3*t+3][3*n+3]))):(e[3*t+2][3*n]=u[0].add(e[3*t+3][3*n]),e[3*t+1][3*n]=u[1].add(e[3*t+3][3*n]));break;case&quot;C&quot;:0===i?(e[3*t][3*n+1]=u[0],e[3*t][3*n+2]=u[1],e[3*t][3*n+3]=u[2]):1===i?(e[3*t+1][3*n+3]=u[0],e[3*t+2][3*n+3]=u[1],e[3*t+3][3*n+3]=u[2]):2===i?(e[3*t+3][3*n+2]=u[0],e[3*t+3][3*n+1]=u[1],0===n&amp;&amp;(e[3*t+3][3*n+0]=u[2])):(e[3*t+2][3*n]=u[0],e[3*t+1][3*n]=u[1]);break;default:console.error(&quot;mesh.js: &quot;+c+&quot; invalid path type.&quot;)}if(0===t&amp;&amp;0===n||r&gt;0){let e=window.getComputedStyle(o[r]).stopColor.match(/^rgb\s*\(\s*(\d+)\s*,\s*(\d+)\s*,\s*(\d+)\s*\)$/i),a=window.getComputedStyle(o[r]).stopOpacity,h=255;a&amp;&amp;(h=Math.floor(255*a)),e&amp;&amp;(0===i?(s[t][n]=[],s[t][n][0]=Math.floor(e[1]),s[t][n][1]=Math.floor(e[2]),s[t][n][2]=Math.floor(e[3]),s[t][n][3]=h):1===i?(s[t][n+1]=[],s[t][n+1][0]=Math.floor(e[1]),s[t][n+1][1]=Math.floor(e[2]),s[t][n+1][2]=Math.floor(e[3]),s[t][n+1][3]=h):2===i?(s[t+1][n+1]=[],s[t+1][n+1][0]=Math.floor(e[1]),s[t+1][n+1][1]=Math.floor(e[2]),s[t+1][n+1][2]=Math.floor(e[3]),s[t+1][n+1][3]=h):3===i&amp;&amp;(s[t+1][n]=[],s[t+1][n][0]=Math.floor(e[1]),s[t+1][n][1]=Math.floor(e[2]),s[t+1][n][2]=Math.floor(e[3]),s[t+1][n][3]=h))}}e[3*t+1][3*n+1]=new x,e[3*t+1][3*n+2]=new x,e[3*t+2][3*n+1]=new x,e[3*t+2][3*n+2]=new x,e[3*t+1][3*n+1].x=(-4*e[3*t][3*n].x+6*(e[3*t][3*n+1].x+e[3*t+1][3*n].x)+-2*(e[3*t][3*n+3].x+e[3*t+3][3*n].x)+3*(e[3*t+3][3*n+1].x+e[3*t+1][3*n+3].x)+-1*e[3*t+3][3*n+3].x)/9,e[3*t+1][3*n+2].x=(-4*e[3*t][3*n+3].x+6*(e[3*t][3*n+2].x+e[3*t+1][3*n+3].x)+-2*(e[3*t][3*n].x+e[3*t+3][3*n+3].x)+3*(e[3*t+3][3*n+2].x+e[3*t+1][3*n].x)+-1*e[3*t+3][3*n].x)/9,e[3*t+2][3*n+1].x=(-4*e[3*t+3][3*n].x+6*(e[3*t+3][3*n+1].x+e[3*t+2][3*n].x)+-2*(e[3*t+3][3*n+3].x+e[3*t][3*n].x)+3*(e[3*t][3*n+1].x+e[3*t+2][3*n+3].x)+-1*e[3*t][3*n+3].x)/9,e[3*t+2][3*n+2].x=(-4*e[3*t+3][3*n+3].x+6*(e[3*t+3][3*n+2].x+e[3*t+2][3*n+3].x)+-2*(e[3*t+3][3*n].x+e[3*t][3*n+3].x)+3*(e[3*t][3*n+2].x+e[3*t+2][3*n].x)+-1*e[3*t][3*n].x)/9,e[3*t+1][3*n+1].y=(-4*e[3*t][3*n].y+6*(e[3*t][3*n+1].y+e[3*t+1][3*n].y)+-2*(e[3*t][3*n+3].y+e[3*t+3][3*n].y)+3*(e[3*t+3][3*n+1].y+e[3*t+1][3*n+3].y)+-1*e[3*t+3][3*n+3].y)/9,e[3*t+1][3*n+2].y=(-4*e[3*t][3*n+3].y+6*(e[3*t][3*n+2].y+e[3*t+1][3*n+3].y)+-2*(e[3*t][3*n].y+e[3*t+3][3*n+3].y)+3*(e[3*t+3][3*n+2].y+e[3*t+1][3*n].y)+-1*e[3*t+3][3*n].y)/9,e[3*t+2][3*n+1].y=(-4*e[3*t+3][3*n].y+6*(e[3*t+3][3*n+1].y+e[3*t+2][3*n].y)+-2*(e[3*t+3][3*n+3].y+e[3*t][3*n].y)+3*(e[3*t][3*n+1].y+e[3*t+2][3*n+3].y)+-1*e[3*t][3*n+3].y)/9,e[3*t+2][3*n+2].y=(-4*e[3*t+3][3*n+3].y+6*(e[3*t+3][3*n+2].y+e[3*t+2][3*n+3].y)+-2*(e[3*t+3][3*n].y+e[3*t][3*n+3].y)+3*(e[3*t][3*n+2].y+e[3*t+2][3*n].y)+-1*e[3*t][3*n].y)/9}}this.nodes=e,this.colors=s}paintMesh(t,e){let s=(this.nodes.length-1)/3,r=(this.nodes[0].length-1)/3;if(&quot;bilinear&quot;===this.type||s&lt;2||r&lt;2){let n;for(let o=0;o&lt;s;++o)for(let s=0;s&lt;r;++s){let r=[];for(let t=3*o,e=3*o+4;t&lt;e;++t)r.push(this.nodes[t].slice(3*s,3*s+4));let i=[];i.push(this.colors[o].slice(s,s+2)),i.push(this.colors[o+1].slice(s,s+2)),(n=new m(r,i)).paint(t,e)}}else{let n,o,a,h,l,d,u;const x=s,g=r;s++,r++;let w=new Array(s);for(let t=0;t&lt;s;++t){w[t]=new Array(r);for(let e=0;e&lt;r;++e)w[t][e]=[],w[t][e][0]=this.nodes[3*t][3*e],w[t][e][1]=this.colors[t][e]}for(let t=0;t&lt;s;++t)for(let e=0;e&lt;r;++e)0!==t&amp;&amp;t!==x&amp;&amp;(n=i(w[t-1][e][0],w[t][e][0]),o=i(w[t+1][e][0],w[t][e][0]),w[t][e][2]=c(w[t-1][e][1],w[t][e][1],w[t+1][e][1],n,o)),0!==e&amp;&amp;e!==g&amp;&amp;(n=i(w[t][e-1][0],w[t][e][0]),o=i(w[t][e+1][0],w[t][e][0]),w[t][e][3]=c(w[t][e-1][1],w[t][e][1],w[t][e+1][1],n,o));for(let t=0;t&lt;r;++t){w[0][t][2]=[],w[x][t][2]=[];for(let e=0;e&lt;4;++e)n=i(w[1][t][0],w[0][t][0]),o=i(w[x][t][0],w[x-1][t][0]),w[0][t][2][e]=n&gt;0?2*(w[1][t][1][e]-w[0][t][1][e])/n-w[1][t][2][e]:0,w[x][t][2][e]=o&gt;0?2*(w[x][t][1][e]-w[x-1][t][1][e])/o-w[x-1][t][2][e]:0}for(let t=0;t&lt;s;++t){w[t][0][3]=[],w[t][g][3]=[];for(let e=0;e&lt;4;++e)n=i(w[t][1][0],w[t][0][0]),o=i(w[t][g][0],w[t][g-1][0]),w[t][0][3][e]=n&gt;0?2*(w[t][1][1][e]-w[t][0][1][e])/n-w[t][1][3][e]:0,w[t][g][3][e]=o&gt;0?2*(w[t][g][1][e]-w[t][g-1][1][e])/o-w[t][g-1][3][e]:0}for(let s=0;s&lt;x;++s)for(let r=0;r&lt;g;++r){let n=i(w[s][r][0],w[s+1][r][0]),o=i(w[s][r+1][0],w[s+1][r+1][0]),c=i(w[s][r][0],w[s][r+1][0]),x=i(w[s+1][r][0],w[s+1][r+1][0]),g=[[],[],[],[]];for(let t=0;t&lt;4;++t){(d=[])[0]=w[s][r][1][t],d[1]=w[s+1][r][1][t],d[2]=w[s][r+1][1][t],d[3]=w[s+1][r+1][1][t],d[4]=w[s][r][2][t]*n,d[5]=w[s+1][r][2][t]*n,d[6]=w[s][r+1][2][t]*o,d[7]=w[s+1][r+1][2][t]*o,d[8]=w[s][r][3][t]*c,d[9]=w[s+1][r][3][t]*x,d[10]=w[s][r+1][3][t]*c,d[11]=w[s+1][r+1][3][t]*x,d[12]=0,d[13]=0,d[14]=0,d[15]=0,u=f(d);for(let e=0;e&lt;9;++e){g[t][e]=[];for(let s=0;s&lt;9;++s)g[t][e][s]=p(u,e/8,s/8),g[t][e][s]&gt;255?g[t][e][s]=255:g[t][e][s]&lt;0&amp;&amp;(g[t][e][s]=0)}}h=[];for(let t=3*s,e=3*s+4;t&lt;e;++t)h.push(this.nodes[t].slice(3*r,3*r+4));l=y(h);for(let s=0;s&lt;8;++s)for(let r=0;r&lt;8;++r)(a=new m(l[s][r],[[[g[0][s][r],g[1][s][r],g[2][s][r],g[3][s][r]],[g[0][s][r+1],g[1][s][r+1],g[2][s][r+1],g[3][s][r+1]]],[[g[0][s+1][r],g[1][s+1][r],g[2][s+1][r],g[3][s+1][r]],[g[0][s+1][r+1],g[1][s+1][r+1],g[2][s+1][r+1],g[3][s+1][r+1]]]])).paint(t,e)}}}transform(t){if(t instanceof x)for(let e=0,s=this.nodes.length;e&lt;s;++e)for(let s=0,r=this.nodes[0].length;s&lt;r;++s)this.nodes[e][s]=this.nodes[e][s].add(t);else if(t instanceof g)for(let e=0,s=this.nodes.length;e&lt;s;++e)for(let s=0,r=this.nodes[0].length;s&lt;r;++s)this.nodes[e][s]=this.nodes[e][s].transform(t)}scale(t){for(let e=0,s=this.nodes.length;e&lt;s;++e)for(let s=0,r=this.nodes[0].length;s&lt;r;++s)this.nodes[e][s]=this.nodes[e][s].scale(t)}}document.querySelectorAll(&quot;rect,circle,ellipse,path,text&quot;).forEach((r,n)=&gt;{let o=r.getAttribute(&quot;id&quot;);o||(o=&quot;patchjs_shape&quot;+n,r.setAttribute(&quot;id&quot;,o));const i=r.style.fill.match(/^url\(\s*&quot;?\s*#([^\s&quot;]+)&quot;?\s*\)/),a=r.style.stroke.match(/^url\(\s*&quot;?\s*#([^\s&quot;]+)&quot;?\s*\)/);if(i&amp;&amp;i[1]){const a=document.getElementById(i[1]);if(a&amp;&amp;&quot;meshgradient&quot;===a.nodeName){const i=r.getBBox();let l=document.createElementNS(s,&quot;canvas&quot;);d(l,{width:i.width,height:i.height});const c=l.getContext(&quot;2d&quot;);let u=c.createImageData(i.width,i.height);const f=new b(a);&quot;objectBoundingBox&quot;===a.getAttribute(&quot;gradientUnits&quot;)&amp;&amp;f.scale(new x(i.width,i.height));const p=a.getAttribute(&quot;gradientTransform&quot;);null!=p&amp;&amp;f.transform(h(p)),&quot;userSpaceOnUse&quot;===a.getAttribute(&quot;gradientUnits&quot;)&amp;&amp;f.transform(new x(-i.x,-i.y)),f.paintMesh(u.data,l.width),c.putImageData(u,0,0);const y=document.createElementNS(t,&quot;image&quot;);d(y,{width:i.width,height:i.height,x:i.x,y:i.y});let g=l.toDataURL();y.setAttributeNS(e,&quot;xlink:href&quot;,g),r.parentNode.insertBefore(y,r),r.style.fill=&quot;none&quot;;const w=document.createElementNS(t,&quot;use&quot;);w.setAttributeNS(e,&quot;xlink:href&quot;,&quot;#&quot;+o);const m=&quot;patchjs_clip&quot;+n,M=document.createElementNS(t,&quot;clipPath&quot;);M.setAttribute(&quot;id&quot;,m),M.appendChild(w),r.parentElement.insertBefore(M,r),y.setAttribute(&quot;clip-path&quot;,&quot;url(#&quot;+m+&quot;)&quot;),u=null,l=null,g=null}}if(a&amp;&amp;a[1]){const o=document.getElementById(a[1]);if(o&amp;&amp;&quot;meshgradient&quot;===o.nodeName){const i=parseFloat(r.style.strokeWidth.slice(0,-2))*(parseFloat(r.style.strokeMiterlimit)||parseFloat(r.getAttribute(&quot;stroke-miterlimit&quot;))||1),a=r.getBBox(),l=Math.trunc(a.width+i),c=Math.trunc(a.height+i),u=Math.trunc(a.x-i/2),f=Math.trunc(a.y-i/2);let p=document.createElementNS(s,&quot;canvas&quot;);d(p,{width:l,height:c});const y=p.getContext(&quot;2d&quot;);let g=y.createImageData(l,c);const w=new b(o);&quot;objectBoundingBox&quot;===o.getAttribute(&quot;gradientUnits&quot;)&amp;&amp;w.scale(new x(l,c));const m=o.getAttribute(&quot;gradientTransform&quot;);null!=m&amp;&amp;w.transform(h(m)),&quot;userSpaceOnUse&quot;===o.getAttribute(&quot;gradientUnits&quot;)&amp;&amp;w.transform(new x(-u,-f)),w.paintMesh(g.data,p.width),y.putImageData(g,0,0);const M=document.createElementNS(t,&quot;image&quot;);d(M,{width:l,height:c,x:0,y:0});let S=p.toDataURL();M.setAttributeNS(e,&quot;xlink:href&quot;,S);const k=&quot;pattern_clip&quot;+n,A=document.createElementNS(t,&quot;pattern&quot;);d(A,{id:k,patternUnits:&quot;userSpaceOnUse&quot;,width:l,height:c,x:u,y:f}),A.appendChild(M),o.parentNode.appendChild(A),r.style.stroke=&quot;url(#&quot;+k+&quot;)&quot;,g=null,p=null,S=null}}})}();
</script></svg>
